<?xml version="1.0" standalone="no"?><!DOCTYPE svg PUBLIC "-//W3C//DTD SVG 1.1//EN" "http://www.w3.org/Graphics/SVG/1.1/DTD/svg11.dtd"><svg t="1634049169461" class="icon" viewBox="0 0 1024 1024" version="1.1" xmlns="http://www.w3.org/2000/svg" p-id="8050" xmlns:xlink="http://www.w3.org/1999/xlink" width="200" height="200"><defs><style type="text/css"></style></defs><path d="M361.51485646 292.04369259c0.97624134 2.92872403 3.9049654 5.85744807 7.80993077 5.85744807h1.95248268c3.9049654-0.97624134 6.83368941-5.85744807 4.88120673-9.76241347l-8.78617212-31.23972305c-0.97624134-3.9049654-5.85744807-6.83368941-9.76241344-4.88120672-3.9049654 0.97624134-6.83368941 5.85744807-4.88120673 9.76241345l8.78617211 30.26348172z m-18.54858556-51.74079135c-1.9524827-3.9049654-6.83368941-5.85744807-9.76241346-3.90496534l-162.05606341 75.1705836c-3.9049654 1.9524827-5.85744807 5.85744807-3.9049654 9.76241346 0.97624134 2.92872403 3.9049654 4.88120672 6.83368943 4.88120672 0.97624134 0 1.9524827 0 2.92872406-0.97624133l162.05606339-75.17058363c4.88120672-0.97624134 5.85744807-5.85744807 3.90496539-9.76241348z m547.67139501-99.57661723v-37.09717118c0-4.88120672-1.9524827-9.76241345-5.85744808-13.66737884-3.9049654-2.92872403-8.78617211-4.88120672-14.64362018-3.90496538l-2.92872405 0.97624136h-0.97624135L709.05677558 118.27273301l-116.17272014 22.453551c-6.83368941 0.97624134-11.71489617 5.85744807-13.66737887 12.69113747-1.9524827 6.83368941 0.97624134 12.69113749 5.85744811 17.57234422l50.76454996 41.97837787 80.05179035 66.38441152-60.52696343 96.64789323c-1.9524827 0-2.92872403-0.97624134-4.88120674-0.97624133-3.9049654-0.97624134-8.78617211-1.9524827-12.69113748-2.92872404-4.88120672-0.97624134-9.76241345-1.9524827-13.66737883-2.92872404-4.88120672-0.97624134-9.76241345-1.9524827-14.6436202-1.9524827-5.85744807-0.97624134-12.69113749-1.9524827-19.52482691-1.95248266-2.92872403 0-6.83368941-0.97624134-9.76241348-0.97624136-8.78617211-0.97624134-17.57234421-0.97624134-27.33475767-1.9524827h-7.80993075c-10.73865482 0-20.50106826-0.97624134-32.21596443-0.97624134-41.97837786 0-79.07554901 2.92872403-113.24399612 8.78617213L386.89713148 326.21213968c-0.97624134-3.9049654-4.88120672-6.83368941-9.76241346-4.88120672-3.9049654 0.97624134-6.83368941 5.85744807-4.88120676 9.76241345l12.69113752 42.95461924c-77.12306631 15.61986151-132.76882302 47.83582594-164.00854612 94.69541054-4.88120672 6.83368941-7.80993077 14.64362017-9.76241345 22.45355096l-0.97624134 2.92872402c-21.4773096 39.04965382-21.4773096 117.14896149-21.47730964 120.07768553 0 110.31527207 68.3368942 259.68019801 166.93727015 297.75361049h27.33475771c5.85744807 4.88120672 12.69113749 9.76241345 19.5248269 14.64362018H709.05677558c94.69541053-36.12092977 163.03230477-176.69968361 163.03230475-289.94367972 0 0 0-28.31099903-4.88120673-63.45568747-1.9524827 3.9049654-4.88120672 6.83368941-7.80993077 10.7386548-6.83368941 6.83368941-14.64362017 13.66737884-22.45355095 20.50106826 0-4.88120672 0-10.73865482-0.97624134-17.57234421 0-2.92872403 0-4.88120672-0.97624134-7.80993075-0.97624134-15.61986151-3.9049654-34.1684471-7.80993077-52.7170327 1.9524827-9.76241345 1.9524827-20.50106826-0.97624135-30.26348172-1.9524827-8.78617211-5.85744807-16.59610288-11.71489613-24.40603363-6.83368941-8.78617211-13.66737884-16.59610288-22.45355098-23.4297923-7.80993077-8.78617211-16.59610288-16.59610288-26.35851633-24.40603366-0.97624134-0.97624134-2.92872403-1.9524827-3.90496539-2.92872402-1.9524827-1.9524827-4.88120672-2.92872403-6.83368941-4.88120675-2.92872403-1.9524827-4.88120672-3.9049654-7.80993077-4.88120673l-1.9524827-0.97624134c-0.97624134 0-1.9524827-0.97624134-1.95248269-0.97624134-5.85744807-2.92872403-10.73865482-5.85744807-16.59610288-8.78617212-2.92872403-0.97624134-4.88120672-1.9524827-7.80993076-3.90496537-3.9049654-1.9524827-8.78617211-3.9049654-12.6911375-4.88120673-3.9049654-0.97624134-7.80993077-2.92872403-11.71489614-3.90496539-2.92872403-0.97624134-6.83368941-1.9524827-9.76241346-2.92872404-3.9049654-0.97624134-8.78617211-2.92872403-12.69113751-3.90496537l57.59823941-90.79044517 128.86385764 106.4103067 4.88120673 3.90496537c2.92872403 2.92872403 6.83368941 3.9049654 10.73865479 3.90496539 2.92872403 0 4.88120672-0.97624134 7.80993077-1.9524827 5.85744807-2.92872403 9.76241345-7.80993077 9.76241348-14.64362018l23.42979231 19.52482692c0.97624134-1.9524827 0.97624134-3.9049654 0.97624133-5.85744807V135.84507725l-25.38227498 4.88120676z" fill="#C4ADAD" p-id="8051"></path><path d="M736.39153326 537.08027039c-64.43192884 65.40817018-160.10358074 107.38654806-268.46637011 111.29151342H442.54288815c-58.57448076-1.9524827-114.22023746-14.64362017-163.03230474-37.09717113-34.1684471-15.61986151-65.40817018-35.14468845-91.76668649-58.57448073-18.54858557-16.59610288-26.35851634-41.00213652-22.45355098-64.43192885 1.9524827-8.78617211 4.88120672-17.57234421 10.73865481-25.38227499 54.66951539-82.98051441 177.67592495-103.48158265 286.03871434-103.48158264 77.12306631 0 166.93727013 10.73865482 229.41671628 46.85958457 19.52482692 11.71489617 37.09717114 25.38227498 49.78830863 42.95461925 5.85744807 7.80993077 9.76241345 15.61986151 11.71489615 24.40603364 5.85744807 22.45355095 0 45.88334324-16.59610289 63.45568746z" fill="#FFFFFF" p-id="8052"></path><path d="M453.28154297 655.20547326h-12.69113749c-58.57448076-1.9524827-114.22023746-13.66737884-164.98478746-37.09717116-34.1684471-15.61986151-66.38441152-35.14468845-93.71916919-59.55072209-20.50106826-17.57234421-29.28724036-44.90710189-24.40603365-71.26561826 1.9524827-9.76241345 5.85744807-19.52482692 11.71489616-28.31099902C216.05489594 388.69158583 314.65527186 352.57065603 461.09147372 352.57065603c100.55285861 0.97624134 177.67592495 16.59610288 231.36919897 46.85958459l1.95248271 0.97624135c21.4773096 12.69113749 39.04965382 27.33475769 51.74079133 44.90710192 5.85744807 8.78617211 10.73865482 17.57234421 12.69113747 27.33475768 6.83368941 25.38227498 0 51.74079135-18.54858556 70.28937692-67.36065286 68.3368942-167.91351149 110.31527207-273.34757683 113.24399609-3.9049654-0.97624134-8.78617211-0.97624134-13.66737884-0.97624132z m7.80993075-288.96743839c-97.62413458 0-224.53550954 17.57234421-280.18126624 100.55285862-4.88120672 6.83368941-7.80993077 14.64362017-8.7861721 22.45355096-3.9049654 21.4773096 3.9049654 43.93086055 19.52482692 57.59823941 26.35851634 23.42979229 56.62199807 41.97837786 89.81420383 57.59823938 49.78830863 22.45355095 103.48158265 35.14468845 160.10358067 36.12092982H466.94892181c102.50534131-2.92872403 199.15323455-42.95461922 263.58516338-108.36278939 14.64362017-14.64362017 20.50106826-36.12092977 14.64362018-56.62199806-1.9524827-7.80993077-5.85744807-14.64362017-10.73865478-21.47730961-11.71489617-15.61986151-27.33475769-28.31099903-45.88334324-40.0258952h-0.97624138l-1.95248269-1.95248267c-50.76454995-30.26348172-126.91137495-44.90710189-224.53550956-45.88334326z" fill="#961919" p-id="8053"></path><path d="M757.86884287 547.81892521c-64.43192884 65.40817018-160.10358074 107.38654806-268.46637009 111.29151344H464.02019777c-58.57448076-1.9524827-114.22023746-14.64362017-163.03230475-37.09717118-23.42979229-12.69113749-44.90710189-27.33475769-63.45568748-44.9071019-18.54858557-16.59610288-26.35851634-41.00213652-22.45355096-64.43192883 1.9524827-8.78617211 4.88120672-17.57234421 10.7386548-25.38227499 54.66951539-82.98051441 177.67592495-103.48158265 286.03871435-103.48158266 66.38441152 0 142.53123651 7.80993077 202.08195858 33.19220575 19.52482692 11.71489617 37.09717114 25.38227498 49.78830864 42.95461925 5.85744807 7.80993077 9.76241345 15.61986151 11.71489613 24.40603364 4.88120672 22.45355095-0.97624134 45.88334324-17.57234421 63.45568748z" fill="#B7E2F9" p-id="8054"></path><path d="M736.39153326 537.08027039c-64.43192884 65.40817018-160.10358074 107.38654806-268.46637011 111.29151342H442.54288815c-5.85744807 0-10.73865482 0-16.59610288-0.97624132 103.48158265-5.85744807 194.27202782-47.83582594 255.77523261-110.3152721 16.59610288-16.59610288 22.45355095-41.00213652 16.5961029-63.45568746-1.9524827-8.78617211-5.85744807-16.59610288-11.71489613-24.40603364-28.31099903-37.09717114-75.17058365-59.55072211-126.91137498-73.21810097 45.88334324 3.9049654 92.74292785 13.66737884 131.7925817 30.26348172 19.52482692 11.71489617 37.09717114 25.38227498 49.78830863 42.95461925 5.85744807 7.80993077 9.76241345 15.61986151 11.71489615 24.40603364 5.85744807 22.45355095 0 45.88334324-16.59610289 63.45568746z" fill="#54D8FC" p-id="8055"></path><path d="M660.24470828 513.65047808c-46.85958459 46.85958459-116.17272015 78.09930768-195.24826915 80.05179038h-18.54858559c-41.00213652-0.97624134-79.07554901-9.76241345-113.2439961-24.40603365-26.35851634-11.71489617-50.76454995-26.35851634-71.26561826-44.90710191-13.66737884-11.71489617-19.52482692-30.26348172-15.61986153-46.85958462 0.97624134-5.85744807 3.9049654-12.69113749 7.80993077-18.54858555 40.02589516-59.55072211 128.86385765-75.17058365 206.9631653-75.17058364 57.59823941 0 123.9826509 7.80993077 169.86599419 36.1209298 12.69113749 7.80993077 23.42979229 17.57234421 32.2159644 29.2872404 3.9049654 5.85744807 6.83368941 11.71489617 8.78617212 17.5723442 3.9049654 17.57234421 0 35.14468845-11.71489615 46.85958459z" fill="#FFFFFF" p-id="8056"></path><path d="M455.23402565 601.51219922h-8.78617211c-40.02589516-0.97624134-78.09930768-8.78617211-114.22023747-24.40603365l-1.95248267-0.97624134c-27.33475769-11.71489617-51.74079135-27.33475769-73.21810094-45.88334326-15.61986151-13.66737884-22.45355095-34.1684471-18.54858557-53.69327402 0.97624134-7.80993077 3.9049654-14.64362017 8.7861721-21.47730961 34.1684471-51.74079135 106.4103067-78.09930768 212.82061339-78.09930767 76.14682498 0 134.72130572 12.69113749 173.77095956 37.09717113l3.9049654 1.9524827c12.69113749 7.80993077 23.42979229 17.57234421 31.23972305 28.31099906 4.88120672 5.85744807 7.80993077 13.66737884 9.76241345 20.50106826 4.88120672 18.54858557 0 39.04965382-13.66737884 52.71703266-49.78830863 49.78830863-122.03016823 80.05179036-200.12947587 82.98051438-2.92872403 0.97624134-5.85744807 0.97624134-9.76241348 0.97624136z m0-14.64362019h9.76241348c74.19434229-1.9524827 143.50747783-30.26348172 190.36706243-78.09930766 9.76241345-9.76241345 13.66737884-25.38227498 9.76241344-39.04965384-0.97624134-4.88120672-3.9049654-10.73865482-6.83368941-14.64362019-7.80993077-9.76241345-17.57234421-18.54858557-29.28724037-26.35851634h-4.88120671v-2.92872405c-37.09717114-21.4773096-92.74292785-33.19220576-163.03230479-33.19220574-70.28937692 0-162.05606342 12.69113749-201.10571722 72.24185961-2.92872403 4.88120672-4.88120672 9.76241345-5.85744808 15.61986152-2.92872403 14.64362017 1.9524827 30.26348172 13.66737882 40.02589516 19.52482692 17.57234421 41.97837786 31.23972305 67.36065288 42.95461924l1.9524827 0.97624136c34.1684471 14.64362017 71.26561824 22.45355095 110.31527208 23.42979228 1.9524827-0.97624134 4.88120672-0.97624134 7.80993075-0.97624135z" fill="#961919" p-id="8057"></path><path d="M692.46067269 513.65047808c-46.85958459 46.85958459-116.17272015 78.09930768-195.24826913 80.05179038h-18.54858562c-41.00213652-0.97624134-79.07554901-9.76241345-113.2439961-24.40603365-15.61986151-8.78617211-30.26348172-19.52482692-42.9546192-31.23972308-13.66737884-11.71489617-19.52482692-30.26348172-15.61986152-46.85958458 0.97624134-5.85744807 3.9049654-12.69113749 7.80993074-18.54858558 40.02589516-59.55072211 128.86385765-75.17058365 206.9631653-75.17058365 46.85958459 0 99.57661729 4.88120672 142.53123651 22.45355097 12.69113749 7.80993077 23.42979229 17.57234421 32.21596443 29.2872404 3.9049654 5.85744807 6.83368941 11.71489617 8.7861721 17.5723442 3.9049654 17.57234421 0 35.14468845-12.69113751 46.85958459z" fill="#F9F18F" p-id="8058"></path><path d="M660.24470828 513.65047808c-46.85958459 46.85958459-116.17272015 78.09930768-195.24826915 80.05179038h-18.54858559c-6.83368941 0-13.66737884-0.97624134-19.52482691-0.97624137 72.24185961-5.85744807 134.72130572-35.14468845 178.65216631-79.07554901 11.71489617-12.69113749 16.59610288-30.26348172 11.71489612-45.88334323-0.97624134-5.85744807-3.9049654-11.71489617-8.78617208-17.57234423-18.54858557-24.40603363-47.83582594-40.02589516-81.02803172-49.78830865 36.12092977 1.9524827 72.24185961 8.78617211 103.48158265 20.50106828 12.69113749 7.80993077 23.42979229 17.57234421 32.2159644 29.28724037 3.9049654 5.85744807 6.83368941 11.71489617 8.78617212 17.57234423 3.9049654 16.59610288 0 34.1684471-11.71489615 45.88334323z" fill="#FFD527" p-id="8059"></path><path d="M777.39366977 603.46468191c0 113.24399613-68.3368942 253.82274992-163.03230472 289.9436797H305.86909975c-94.69541053-36.12092977-162.05606342-183.53337302-162.05606341-289.9436797 0 0 0-79.07554901 20.50106825-116.17272016l0.97624135 0.97624135c-3.9049654 18.54858557 0.97624134 39.04965382 12.6911375 54.66951539 2.92872403 3.9049654 5.85744807 6.83368941 8.78617212 9.76241346 26.35851634 23.42979229 57.59823941 42.95461922 91.76668652 58.57448073 48.81206729 22.45355095 103.48158265 35.14468845 163.03230472 37.09717113H466.94892181c108.36278938-2.92872403 205.01068263-45.88334324 268.46637011-111.29151342 16.59610288-16.59610288 22.45355095-41.00213652 16.59610288-63.45568746 0.97624134-0.97624134 0.97624134-0.97624134 0.97624135-1.9524827 8.78617211 20.50106826 14.64362017 45.88334324 17.57234421 69.31313557 6.83368941 34.1684471 6.83368941 62.47944614 6.83368941 62.47944611z" fill="#FFFFFF" p-id="8060"></path><path d="M615.33760638 901.21829238h-312.39723067c-98.60037594-37.09717114-166.93727013-186.46209708-166.93727015-296.77736914 0-2.92872403 0-82.00427305 21.47730962-120.07768551l4.88120672-8.78617212 10.73865481 10.73865481-0.97624133 2.92872403c-2.92872403 17.57234421 0.97624134 35.14468845 11.71489614 48.81206728 2.92872403 2.92872403 4.88120672 5.85744807 7.80993078 8.78617213 26.35851634 23.42979229 56.62199807 41.97837786 89.81420383 57.59823938 49.78830863 22.45355095 103.48158265 35.14468845 160.10358067 36.12092982H466.94892181c102.50534131-2.92872403 199.15323455-42.95461922 263.58516338-108.36278939 14.64362017-14.64362017 20.50106826-36.12092977 14.64362018-56.62199806l-0.97624135-3.90496538 3.90496538-3.90496538 7.80993079-9.76241345 4.88120672 11.71489613c7.80993077 18.54858557 13.66737884 41.97837786 18.54858556 70.28937687 4.88120672 34.1684471 4.88120672 62.47944614 4.88120674 64.43192884 0 112.26775477-67.36065286 258.70395664-166.93727015 296.77736914h-1.95248268z m-307.51602392-14.64362017h305.56354123c93.71916919-36.12092977 156.19861531-175.72344225 156.19861533-283.1099903 0 0 0-28.31099903-4.88120674-61.50320481-1.9524827-10.73865482-2.92872403-20.50106826-5.85744808-29.28724036-2.92872403 10.73865482-9.76241345 21.4773096-17.5723442 30.26348175-67.36065286 68.3368942-167.91351149 110.31527207-273.34757685 113.24399609-8.78617211 0.97624134-17.57234421 0.97624134-26.35851635 0-58.57448076-1.9524827-114.22023746-13.66737884-164.98478743-37.09717116-34.1684471-15.61986151-66.38441152-35.14468845-93.71916921-59.55072205-3.9049654-2.92872403-6.83368941-6.83368941-9.76241345-10.73865481-5.85744807-7.80993077-9.76241345-16.59610288-12.69113749-25.38227501-8.78617211 37.09717114-8.78617211 81.02803172-8.78617212 82.00427305-0.97624134 102.50534131 66.38441152 246.01281914 156.19861536 281.15750761z" fill="#961919" p-id="8061"></path><path d="M820.34828901 624.94199151c0 113.24399613-68.3368942 253.82274992-163.03230478 289.94367971H349.79996031c-80.05179036-50.76454995-135.69754706-179.62840764-135.69754705-276.27630085 0 0 0-38.07341248 6.8336894-74.19434227 2.92872403 3.9049654 5.85744807 6.83368941 8.78617212 9.76241344 26.35851634 23.42979229 57.59823941 42.95461922 91.76668651 58.57448074 54.66951539 30.26348172 120.07768554 48.81206729 190.36706244 50.76454999H537.23829873c108.36278938-2.92872403 205.01068263-45.88334324 268.4663701-111.29151341 2.92872403-2.92872403 5.85744807-6.83368941 7.80993077-10.73865481 6.83368941 35.14468845 6.83368941 63.4556875 6.83368941 63.45568746z" fill="#B7E2F9" p-id="8062"></path><path d="M368.34854588 647.39554249c-73.21810095-4.88120672-140.57875378-28.31099903-195.24826917-63.45568751 0.97624134-12.69113749 2.92872403-26.35851634 5.85744809-41.00213649 2.92872403 3.9049654 5.85744807 6.83368941 8.78617212 9.76241346 26.35851634 23.42979229 57.59823941 42.95461922 91.76668649 58.57448073 26.35851634 15.61986151 56.62199807 27.33475769 88.83796247 36.12092981zM777.39366977 603.46468191c0 113.24399613-68.3368942 253.82274992-163.03230472 289.9436797h-54.66951538c94.69541053-36.12092977 163.03230477-176.69968361 163.03230475-289.9436797 0 0 0-5.85744807-0.97624135-16.59610288 15.61986151-10.73865482 29.28724036-23.42979229 41.97837788-36.12092978 2.92872403-2.92872403 5.85744807-6.83368941 7.80993075-10.73865485 5.85744807 35.14468845 5.85744807 63.4556875 5.85744807 63.45568751z" fill="#54D8FC" p-id="8063"></path><path d="M406.42195838 598.58347518c-2.92872403 0-5.85744807-1.9524827-6.83368943-4.88120672l-78.09930766-273.34757687c-0.97624134-3.9049654 0.97624134-7.80993077 4.88120673-8.78617209 3.9049654-0.97624134 7.80993077 0.97624134 8.7861721 4.88120674l78.09930767 273.34757682c0.97624134 3.9049654-0.97624134 7.80993077-4.88120672 8.78617212H406.42195838zM317.5839959 287.16248586c-2.92872403 0-5.85744807-1.9524827-6.83368943-4.88120672l-8.78617209-31.23972307c-0.97624134-3.9049654 0.97624134-7.80993077 4.88120674-8.7861721 3.9049654-0.97624134 7.80993077 0.97624134 8.78617209 4.88120673l8.78617212 31.23972306c0.97624134 3.9049654-0.97624134 7.80993077-4.88120674 8.7861721h-1.95248269zM123.31196809 315.4734849c-2.92872403 0-5.85744807-1.9524827-6.83368944-3.9049654-1.9524827-3.9049654 0-7.80993077 3.9049654-9.76241345l162.0560634-75.17058362c3.9049654-1.9524827 7.80993077 0 9.76241345 3.90496538 1.9524827 3.9049654 0 7.80993077-3.90496538 9.76241343l-162.05606342 75.17058366H123.31196809zM461.39410856 593.69250603l302.84959031-481.90201552 12.39826509 7.79040592L473.78261122 601.48291197z" fill="#961919" p-id="8064"></path><path d="M831.08694382 97.77166477v271.39509414c0 1.9524827-0.97624134 3.9049654-0.97624135 5.85744808-3.9049654 6.83368941-12.69113749 9.76241345-19.52482692 3.90496538l-266.5138874-219.6543028c-7.80993077-6.83368941-4.88120672-20.50106826 5.85744806-22.45355097l266.51388741-51.74079131c7.80993077-1.9524827 14.64362017 4.88120672 14.6436202 12.69113748z" fill="#FFFFFF" p-id="8065"></path><path d="M818.39580632 389.66782716c-4.88120672 0-8.78617211-1.9524827-12.69113749-4.88120672l-266.51388743-219.65430281c-5.85744807-4.88120672-8.78617211-12.69113749-6.83368941-20.50106829 1.9524827-7.80993077 7.80993077-13.66737884 15.61986151-14.64362017l266.51388745-51.7407913c5.85744807-0.97624134 11.71489617 0 16.59610287 3.90496535s7.80993077 9.76241345 7.80993075 15.61986155v271.39509414c0 2.92872403-0.97624134 5.85744807-1.95248269 8.78617213-2.92872403 5.85744807-7.80993077 9.76241345-13.66737884 10.73865479-1.9524827 0-2.92872403 0.97624134-4.88120672 0.97624133z m0-297.75361048h-0.97624134l-266.51388744 51.74079136c-2.92872403 0.97624134-3.9049654 2.92872403-3.90496537 3.90496538 0 0.97624134-0.97624134 3.9049654 1.95248267 5.85744806l266.51388744 219.65430282c1.9524827 0.97624134 3.9049654 0.97624134 4.88120673 0.97624135 1.9524827 0 2.92872403-0.97624134 3.90496538-2.92872405 0-0.97624134 0.97624134-1.9524827 0.97624136-2.92872403V97.77166477c0-1.9524827-0.97624134-3.9049654-1.95248271-3.90496539-1.9524827-0.97624134-2.92872403-1.9524827-4.88120672-1.9524827z" fill="#961919" p-id="8066"></path><path d="M864.27914955 126.08266378V391.62030987c0 1.9524827-0.97624134 3.9049654-0.97624134 5.85744805L618.26633042 196.37204069c-7.80993077-6.83368941-4.88120672-20.50106826 5.85744809-22.45355095l240.15537104-47.83582596z" fill="#FFC773" p-id="8067"></path><path d="M831.08694382 103.62911283v265.53764608c0 1.9524827-0.97624134 3.9049654-0.97624135 5.85744808l-53.69327404-43.93086058V114.36776765l54.66951539-10.73865482z" fill="#FF9C31" p-id="8068"></path><path d="M615.33760638 901.21829238h-312.39723067c-98.60037594-37.09717114-166.93727013-186.46209708-166.93727015-296.77736914 0-2.92872403 0-82.00427305 21.47730962-120.07768551l4.88120672-8.78617212 10.73865481 10.73865481-0.97624133 2.92872403c-3.9049654 21.4773096 3.9049654 43.93086055 19.52482692 57.59823941 12.69113749 10.73865482 25.38227498 21.4773096 39.04965382 30.26348171 55.64575673 36.12092977 122.03016823 57.59823941 191.3433038 62.47944612 6.83368941 0 12.69113749 0.97624134 18.54858556 0.97624137H465.97268047c102.50534131-2.92872403 199.15323455-42.95461922 263.58516337-108.36278939 14.64362017-14.64362017 20.50106826-36.12092977 14.64362018-56.62199806l-0.97624134-3.90496538 3.90496539-3.90496538 7.80993077-9.76241345 4.8812067 11.71489613c16.59610288 39.04965382 21.4773096 90.79044518 22.453551 118.12520285 0.97624134 10.73865482 0.97624134 16.59610288 0.97624133 16.59610286 0 112.26775477-67.36065286 258.70395664-166.93727013 296.77736914h-0.97624136z m-307.51602392-14.64362017h305.56354123c93.71916919-36.12092977 156.19861531-175.72344225 156.19861533-283.1099903 0 0 0-5.85744807-0.97624136-16.59610288-0.97624134-14.64362017-2.92872403-44.90710189-9.76241346-75.17058363-2.92872403 10.73865482-9.76241345 21.4773096-17.5723442 30.2634817-67.36065286 68.3368942-167.91351149 110.31527207-273.34757685 113.24399616-8.78617211 0.97624134-17.57234421 0.97624134-26.35851635 0-5.85744807 0-11.71489617 0-18.54858554-0.97624137-72.24185961-4.88120672-141.55499514-27.33475769-199.15323456-65.40817015-14.64362017-9.76241345-28.31099903-19.52482692-41.00213654-31.23972309-10.73865482-9.76241345-18.54858557-22.45355095-22.45355094-36.12092981-8.78617211 37.09717114-8.78617211 81.02803172-8.78617212 82.00427307-0.97624134 104.45782401 66.38441152 247.96530186 156.19861536 283.1099903z" fill="#961919" p-id="8069"></path><path d="M453.28154297 655.20547326h-12.69113749c-98.60037594-1.9524827-190.36706243-37.09717114-258.70395665-96.64789325-20.50106826-17.57234421-29.28724036-44.90710189-24.40603365-71.26561826 1.9524827-9.76241345 5.85744807-19.52482692 11.71489616-28.31099902C216.05489594 388.69158583 314.65527186 352.57065603 461.09147372 352.57065603c59.55072211 0 111.29151341 5.85744807 154.24613266 17.57234425 59.55072211 14.64362017 104.45782401 40.02589516 130.81634035 75.17058361 5.85744807 8.78617211 10.73865482 17.57234421 12.69113747 27.33475768 6.83368941 25.38227498 0 51.74079135-18.54858556 70.28937692-64.43192884 65.40817018-159.12733936 106.4103067-260.65643935 112.26775477-3.9049654 0-8.78617211 0.97624134-12.69113748 0.97624132-3.9049654-0.97624134-8.78617211-0.97624134-13.66737884-0.97624132z m7.80993075-288.96743839c-97.62413458 0-224.53550954 17.57234421-280.18126624 100.55285862-4.88120672 6.83368941-7.80993077 14.64362017-8.7861721 22.45355096-3.9049654 21.4773096 3.9049654 43.93086055 19.52482692 57.59823941 65.40817018 57.59823941 154.24613264 90.79044518 249.9177845 93.7191692H466.94892181c3.9049654 0 8.78617211 0 12.69113748-0.97624137 97.62413458-5.85744807 189.39082109-44.90710189 251.87026725-108.36278939 14.64362017-14.64362017 20.50106826-36.12092977 14.64362019-56.62199802-1.9524827-7.80993077-5.85744807-14.64362017-10.73865481-21.4773096-24.40603363-32.21596439-66.38441152-55.64575673-123.00640958-70.28937693-41.97837786-10.73865482-92.74292785-16.59610288-151.31740862-16.59610288z" fill="#961919" p-id="8070"></path><path d="M455.23402565 601.51219922h-8.78617211c-72.24185961-1.9524827-138.6262711-27.33475769-188.41457974-71.26561825-15.61986151-13.66737884-22.45355095-34.1684471-18.54858557-53.69327402 0.97624134-7.80993077 3.9049654-14.64362017 8.78617211-21.47730961 34.1684471-51.74079135 106.4103067-78.09930768 212.82061338-78.09930767 48.81206729 0 89.81420383 5.85744807 123.98265096 15.61986154 38.07341248 11.71489617 67.36065286 29.28724036 84.93299707 52.71703268 4.88120672 5.85744807 7.80993077 13.66737884 9.76241343 20.50106827 4.88120672 18.54858557 0 39.04965382-13.66737883 52.71703265-45.88334324 46.85958459-111.29151341 76.14682498-182.55713165 82.00427305-5.85744807 0-11.71489617 0.97624134-17.57234423 0.97624136H455.23402565z m0-14.64362019h9.76241348c5.85744807 0 11.71489617-0.97624134 16.59610285-0.97624134 68.3368942-5.85744807 129.84009898-33.19220576 173.77095958-77.12306632 9.76241345-9.76241345 13.66737884-25.38227498 9.76241344-39.04965384-0.97624134-4.88120672-3.9049654-10.73865482-6.83368941-14.64362019-15.61986151-20.50106826-41.97837786-37.09717114-77.12306632-47.83582594-32.21596439-9.76241345-72.24185961-14.64362017-119.10144418-14.64362019-70.28937692 0-162.05606342 12.69113749-201.10571726 72.24185961-2.92872403 4.88120672-4.88120672 9.76241345-5.85744807 15.61986152-2.92872403 14.64362017 1.9524827 30.26348172 13.66737883 40.02589516 46.85958459 41.97837786 111.29151341 65.40817018 179.62840765 67.36065288 0.97624134-0.97624134 3.9049654-0.97624134 6.83368941-0.97624135zM822.30077171 393.57279255c-3.9049654 0-7.80993077-0.97624134-10.73865481-3.90496539L533.33333333 160.25111089c-4.88120672-3.9049654-6.83368941-10.73865482-5.85744807-16.59610285 1.9524827-5.85744807 6.83368941-10.73865482 12.69113748-11.71489617l278.22878358-54.66951536c4.88120672-0.97624134 9.76241345 0 13.66737884 3.90496537 3.9049654 2.92872403 5.85744807 7.80993077 5.85744806 12.6911375v284.08623166c0 6.83368941-3.9049654 11.71489617-9.76241345 14.64362017-0.97624134 0-2.92872403 0.97624134-5.85744806 0.97624134z m0-301.65857587L543.09574678 145.60749072c-0.97624134 0-0.97624134 0.97624134-0.97624134 0.97624134 0 0.97624134 0 0.97624134 0.97624134 1.95248271l278.22878356 229.41671627c0.97624134 0 0.97624134 0.97624134 1.9524827 0 0.97624134 0 0.97624134-0.97624134 0.97624135-1.95248272v-283.10999027c0-0.97624134 0-0.97624134-0.97624135-0.97624137 0 0-0.97624134-0.97624134-0.97624133 0zM517.71347182 900.24205103c-0.97624134 0-1.9524827 0-2.92872406-0.97624134-3.9049654-1.9524827-4.88120672-5.85744807-2.92872403-9.76241344 0-0.97624134 38.07341248-78.09930768 49.78830863-144.48371919 0.97624134-3.9049654 4.88120672-6.83368941 8.78617211-5.85744807 3.9049654 0.97624134 6.83368941 4.88120672 5.85744808 8.7861721-11.71489617 68.3368942-49.78830863 145.45996051-50.76454999 148.38868458-2.92872403 1.9524827-4.88120672 3.9049654-7.80993074 3.90496536zM423.01806126 902.19453373c-1.9524827 0-4.88120672-0.97624134-5.85744808-2.92872404-0.97624134-1.9524827-32.21596439-51.74079135-22.45355095-99.57661726 0.97624134-3.9049654 4.88120672-6.83368941 8.78617212-5.85744809 3.9049654 0.97624134 6.83368941 4.88120672 5.85744808 8.78617213-8.78617211 41.00213652 19.52482692 87.86172112 20.50106825 87.86172112 1.9524827 3.9049654 0.97624134 7.80993077-1.9524827 9.76241344-2.92872403 0.97624134-3.9049654 1.9524827-4.88120672 1.9524827zM368.34854588 899.26580969c-2.92872403 0-4.88120672-0.97624134-5.85744809-3.90496536-2.92872403-3.9049654-60.52696345-103.48158265-45.88334323-162.05606344 0.97624134-3.9049654 4.88120672-5.85744807 8.7861721-5.85744807 3.9049654 0.97624134 5.85744807 4.88120672 5.85744808 8.78617211-12.69113749 52.71703265 43.93086055 150.34116724 44.9071019 151.31740862 1.9524827 3.9049654 0.97624134 7.80993077-2.92872405 9.76241347-2.92872403 1.9524827-3.9049654 1.9524827-4.88120671 1.95248267zM446.44785354 899.26580969c-3.9049654 0-7.80993077-2.92872403-7.80993074-7.80993077 0-9.76241345 0-19.52482692-13.66737885-64.43192883-0.97624134-3.9049654 0.97624134-7.80993077 4.88120673-8.78617208 3.9049654-0.97624134 7.80993077 0.97624134 8.78617212 4.8812067 13.66737884 45.88334324 13.66737884 57.59823941 13.66737881 68.33689421 1.9524827 4.88120672-1.9524827 7.80993077-5.85744807 7.80993077zM480.61630068 899.26580969c-0.97624134 0-2.92872403 0-3.90496542-0.97624133-2.92872403-1.9524827-3.9049654-6.83368941-1.95248269-9.76241346 5.85744807-7.80993077 18.54858557-84.93299709 5.85744811-116.17272016-1.9524827-3.9049654 0-7.80993077 3.90496536-9.76241346 3.9049654-1.9524827 7.80993077 0 9.76241347 3.90496539 14.64362017 36.12092977 0 119.10144417-7.80993077 129.840099-0.97624134 1.9524827-2.92872403 2.92872403-5.85744806 2.92872402z" fill="#961919" p-id="8071"></path></svg>