<?xml version="1.0" standalone="no"?><!DOCTYPE svg PUBLIC "-//W3C//DTD SVG 1.1//EN" "http://www.w3.org/Graphics/SVG/1.1/DTD/svg11.dtd"><svg t="1634049175594" class="icon" viewBox="0 0 1024 1024" version="1.1" xmlns="http://www.w3.org/2000/svg" p-id="8204" xmlns:xlink="http://www.w3.org/1999/xlink" width="200" height="200"><defs><style type="text/css"></style></defs><path d="M461.09147372 198.62652798s-0.97624134 0 0 0c-1.9524827-2.92872403-3.9049654-4.88120672-5.85744807-6.83368942-0.97624134-1.9524827-2.92872403-2.92872403-3.90496537-4.88120671-1.9524827-1.9524827-2.92872403-3.9049654-4.88120674-4.88120673-1.9524827-1.9524827-3.9049654-3.9049654-6.8336894-5.85744809-0.97624134-0.97624134-2.92872403-1.9524827-3.90496539-2.92872403l-0.97624136-0.97624134-1.95248267-1.95248269c-0.97624134-0.97624134-1.9524827-0.97624134-2.92872404-1.9524827-1.9524827-0.97624134-2.92872403-1.9524827-4.88120673-2.92872404-0.97624134-0.97624134-1.9524827-0.97624134-2.92872403-1.95248267-1.9524827-0.97624134-3.9049654-1.9524827-6.83368944-2.92872406-2.92872403-0.97624134-4.88120672-1.9524827-7.80993077-2.92872403-2.92872403-0.97624134-4.88120672-1.9524827-7.80993076-1.95248268-2.92872403-0.97624134-4.88120672-0.97624134-7.80993076-1.95248271-2.92872403-0.97624134-5.85744807-0.97624134-8.7861721-0.97624135-2.92872403 0-5.85744807-0.97624134-8.78617212-0.97624135h-18.54858559c-2.92872403 0-5.85744807 0-8.78617213 0.97624135-3.9049654 0-7.80993077 0.97624134-11.71489613 1.95248269-2.92872403 0-5.85744807 0.97624134-7.80993077 0.97624137l-14.64362017 2.92872401c-1.9524827 0.97624134-3.9049654 0.97624134-5.85744806 0.97624135-7.80993077 1.9524827-14.64362017 3.9049654-22.453551 6.83368944-150.34116724 50.76454995-154.24613264 165.96102881-155.22237395 208.91564799v1.9524827c-0.97624134 28.31099903 9.76241345 82.00427305 20.50106825 118.12520284 9.76241345 32.21596439 26.35851634 123.00640958 23.42979229 186.46209708-0.97624134 11.71489617-1.9524827 22.45355095-2.92872405 32.21596439 0 1.9524827 0 4.88120672-0.97624132 6.83368941-1.9524827 16.59610288-1.9524827 31.23972305 0 46.85958461-2.92872403 35.14468845-2.92872403 67.36065286 24.40603365 105.43406534 20.50106826 28.31099903 62.47944614 34.1684471 94.69541053 34.16844712 6.83368941 0 12.69113749 0 18.5485856-0.97624135 57.59823941-3.9049654 129.84009898-27.33475769 146.43620185-58.57448075 1.9524827-3.9049654 3.9049654-7.80993077 4.88120671-11.71489615 7.80993077-6.83368941 14.64362017-14.64362017 19.52482692-23.42979229 14.64362017-27.33475769 16.59610288-52.71703265-6.83368941-118.12520287-21.4773096-59.55072211-1.9524827-123.00640958 8.7861721-164.98478745 1.9524827-7.80993077 9.76241345-40.02589516 12.69113752-48.81206726 36.12092977-143.50747783 24.40603363-243.0840951-31.23972309-282.13374897z m-157.17485665 692.15511421c-48.81206729 2.92872403-84.93299709-6.83368941-100.55285862-27.33475769-15.61986151-21.4773096-21.4773096-40.02589516-22.45355097-58.57448075 2.92872403 4.88120672 5.85744807 9.76241345 9.76241347 15.61986152 2.92872403 3.9049654 5.85744807 7.80993077 9.76241346 11.71489617l2.92872404 2.92872402c2.92872403 2.92872403 5.85744807 4.88120672 8.78617211 6.83368942 0.97624134 0.97624134 2.92872403 1.9524827 3.90496538 2.92872404l8.78617212 5.85744808c1.9524827 0.97624134 2.92872403 1.9524827 4.88120672 2.92872403 2.92872403 1.9524827 6.83368941 2.92872403 10.7386548 4.88120674 0.97624134 0 1.9524827 0.97624134 2.92872404 0.97624134 0.97624134 0 1.9524827 0.97624134 2.92872403 0.97624133 1.9524827 0.97624134 4.88120672 0.97624134 6.83368941 1.95248273 1.9524827 0.97624134 4.88120672 0.97624134 6.83368944 1.95248268 2.92872403 0.97624134 4.88120672 0.97624134 7.80993074 1.95248268 2.92872403 2.92872403 5.85744807 4.88120672 8.78617213 6.83368942 39.04965382 13.66737884 87.86172112 9.76241345 127.88761631-5.85744806-25.38227498 10.73865482-63.4556875 21.4773096-100.55285861 23.4297923z m636.50935749-469.57208737c-0.97624134-30.26348172-1.9524827-95.67165189-55.64575673-148.38868455-11.71489617-23.42979229-30.26348172-47.83582594-58.57448075-68.33689422-0.97624134-0.97624134-1.9524827-1.9524827-3.90496537-2.92872403-0.97624134-0.97624134-2.92872403-1.9524827-3.90496539-2.92872404-1.9524827-0.97624134-3.9049654-2.92872403-5.85744808-3.90496537-0.97624134-0.97624134-1.9524827-0.97624134-2.92872404-1.95248268-2.92872403-1.9524827-4.88120672-2.92872403-7.80993077-4.88120675-0.97624134 0-0.97624134-0.97624134-1.95248268-0.97624133-2.92872403-1.9524827-5.85744807-2.92872403-8.78617211-4.88120673-0.97624134 0-0.97624134-0.97624134-1.9524827-0.97624134-2.92872403-1.9524827-6.83368941-2.92872403-9.76241347-4.88120675-0.97624134 0-0.97624134-0.97624134-1.9524827-0.97624135-1.9524827-0.97624134-4.88120672-1.9524827-6.83368941-2.92872402l-0.97624134-0.97624133c-4.88120672-1.9524827-10.73865482-3.9049654-16.59610287-5.8574481-2.92872403-0.97624134-4.88120672-0.97624134-6.83368942-1.95248267-4.88120672-1.9524827-9.76241345-2.92872403-14.64362019-4.88120676-2.92872403-0.97624134-5.85744807-0.97624134-7.80993078-1.95248269-3.9049654-0.97624134-8.78617211-1.9524827-12.69113748-2.92872403-2.92872403-0.97624134-5.85744807-0.97624134-8.7861721-0.97624135-3.9049654-0.97624134-7.80993077-0.97624134-10.73865481-0.97624135-2.92872403 0-5.85744807 0-8.78617212-0.97624133h-18.54858558c-2.92872403 0-5.85744807 0-8.78617211 0.97624133-2.92872403 0-5.85744807 0.97624134-7.80993077 0.97624135-2.92872403 0.97624134-5.85744807 0.97624134-8.78617211 1.95248269-2.92872403 0.97624134-4.88120672 0.97624134-7.80993077 1.95248269l-8.78617211 2.92872404-5.85744806 2.92872404c-0.97624134 0.97624134-2.92872403 0.97624134-3.9049654 1.9524827-1.9524827 0.97624134-3.9049654 1.9524827-5.85744806 3.90496538-0.97624134 0.97624134-1.9524827 0.97624134-2.92872403 0.97624135l-1.95248272 0.97624135-0.97624134 0.97624136c-1.9524827 0.97624134-3.9049654 2.92872403-5.85744806 3.90496535-1.9524827 0.97624134-3.9049654 2.92872403-4.88120673 3.9049654-1.9524827 1.9524827-3.9049654 3.9049654-5.85744812 6.83368942l-2.92872401 2.92872404c-1.9524827 2.92872403-4.88120672 5.85744807-6.83368942 8.78617212 0 0.97624134-0.97624134 0.97624134-0.97624136 1.95248267-1.9524827 3.9049654-4.88120672 7.80993077-6.8336894 11.71489614v0.97624136c-26.35851634 53.69327404-25.38227498 137.65002975 2.92872401 247.96530182 2.92872403 9.76241345 10.73865482 41.97837786 12.69113752 48.81206732l1.95248266 8.7861721c10.73865482 41.00213652 25.38227498 97.62413458 6.83368946 151.31740862-18.54858557 51.74079135-21.4773096 79.07554901-15.61986155 101.52909995-3.9049654 29.28724036-0.97624134 55.64575673 8.78617209 74.19434228 16.59610288 31.23972305 88.83796247 54.66951539 146.43620191 58.57448076 5.85744807 0 11.71489617 0.97624134 18.54858557 0.97624137 26.35851634 0 59.55072211-3.9049654 82.00427306-21.47730962 3.9049654-0.97624134 7.80993077-1.9524827 11.71489614-3.90496541 8.78617211-5.85744807 16.59610288-13.66737884 22.45355093-21.47730961 36.12092977-49.78830863 36.12092977-76.14682498 33.19220578-133.74506437-2.92872403-63.4556875 13.66737884-154.24613264 23.42979231-188.41457975 8.78617211-33.19220576 19.52482692-86.88547979 18.54858558-114.22023747z m-210.86813072 469.57208737c-59.55072211-3.9049654-122.03016823-27.33475769-133.74506437-50.76454998-4.88120672-9.76241345-7.80993077-22.45355095-8.7861721-37.09717115 0 0.97624134 0.97624134 0.97624134 1.95248269 1.95248269s1.9524827 2.92872403 2.92872403 3.90496539c0.97624134 1.9524827 2.92872403 2.92872403 3.90496538 4.88120673 0 0.97624134 0.97624134 0.97624134 0.97624136 1.95248268 13.66737884 13.66737884 32.21596439 25.38227498 52.71703265 34.16844709 0.97624134 0 1.9524827 0.97624134 2.92872402 0.97624136 1.9524827 0.97624134 3.9049654 0.97624134 5.85744809 1.95248267 1.9524827 0.97624134 3.9049654 0.97624134 5.85744808 1.95248271 0.97624134 0 2.92872403 0.97624134 3.90496538 0.97624135 2.92872403 0.97624134 4.88120672 1.9524827 7.80993079 1.95248268 0.97624134 0 1.9524827 0.97624134 2.928724 0.97624136 2.92872403 0.97624134 5.85744807 1.9524827 8.78617213 1.95248267 0.97624134 0 1.9524827 0 1.95248267 0.97624137 1.9524827 0.97624134 4.88120672 0.97624134 6.83368946 0.97624136 23.42979229 14.64362017 52.71703265 24.40603363 82.00427304 26.35851635-13.66737884 2.92872403-30.26348172 2.92872403-48.8120673 1.95248267z" fill="#C4ADAD" p-id="8205"></path><path d="M235.57972284 896.63909027c-32.21596439 0-74.19434229-5.85744807-94.69541056-34.1684471-28.31099903-39.04965382-27.33475769-71.26561824-24.40603363-107.38654807 0-3.9049654 3.9049654-6.83368941 7.80993077-6.83368941s6.83368941 3.9049654 6.83368944 7.80993075c-2.92872403 35.14468845-3.9049654 62.47944614 21.47730958 96.64789323 14.64362017 20.50106826 51.74079135 31.23972305 100.55285862 27.33475772 59.55072211-3.9049654 122.03016823-27.33475769 133.74506442-50.76455 10.73865482-19.52482692 11.71489617-52.71703265 3.90496534-85.90923844-0.97624134-3.9049654 1.9524827-7.80993077 5.85744809-8.78617209 3.9049654-0.97624134 7.80993077 1.9524827 8.78617212 5.85744806 8.78617211 37.09717114 6.83368941 73.21810095-4.88120672 96.64789323-16.59610288 31.23972305-88.83796247 54.66951539-146.43620189 58.57448076-5.85744807 0-11.71489617 0.97624134-18.54858558 0.97624136z" fill="#961919" p-id="8206"></path><path d="M395.68330358 499.30886251c-10.73865482 41.97837786-30.26348172 105.43406535-8.7861721 164.98478744 23.42979229 65.40817018 21.4773096 90.79044518 6.8336894 118.12520286-27.33475769 50.76454995-128.86385765 82.98051441-198.17699319 58.57448075-19.52482692-6.83368941-37.09717114-18.54858557-48.81206732-35.14468846-36.12092977-49.78830863-22.45355095-76.14682498-19.52482692-133.74506436 2.92872403-63.4556875-13.66737884-154.24613264-23.42979229-188.41457977s-20.50106826-87.86172112-19.52482693-115.1964788c0.97624134-41.97837786 1.9524827-154.24613264 150.34116727-204.03444128 63.4556875-21.4773096 112.26775477-18.54858557 145.45996051 4.88120673 56.62199807 40.02589516 67.36065286 139.60251245 29.28724042 282.13374893-3.9049654 7.80993077-11.71489617 40.02589516-13.66737885 47.83582596z" fill="#FFFFFF" p-id="8207"></path><path d="M426.92302663 519.80993077c-10.73865482 41.97837786-30.26348172 105.43406535-8.78617209 164.98478744 23.42979229 65.40817018 21.4773096 90.79044518 6.83368941 118.12520285-27.33475769 50.76454995-128.86385765 82.98051441-198.17699321 58.57448075-8.78617211-5.85744807-16.59610288-13.66737884-22.45355097-21.4773096-36.12092977-49.78830863-22.45355095-76.14682498-19.52482688-133.74506439 2.92872403-63.4556875-13.66737884-154.24613264-23.42979233-188.41457975s-20.50106826-87.86172112-19.52482691-115.1964788c0.97624134-41.97837786 1.9524827-154.24613264 150.34116725-204.03444129 48.81206729-16.59610288 88.83796247-18.54858557 119.1014442-8.7861721 56.62199807 40.02589516 67.36065286 139.60251245 29.28724038 282.13374896-3.9049654 7.80993077-11.71489617 40.02589516-13.66737885 47.83582593z" fill="#B7E2F9" p-id="8208"></path><path d="M395.68330358 499.30886251c-10.73865482 41.97837786-30.26348172 105.43406535-8.7861721 164.98478744 23.42979229 65.40817018 21.4773096 90.79044518 6.8336894 118.12520286-23.42979229 42.95461922-99.57661729 73.21810095-164.98478744 66.38441151 53.69327404-4.88120672 107.38654806-31.23972305 125.93513359-66.38441151 14.64362017-27.33475769 16.59610288-52.71703265-6.83368941-118.12520286-21.4773096-59.55072211-1.9524827-123.00640958 8.7861721-164.98478744 1.9524827-7.80993077 9.76241345-40.02589516 12.69113751-48.81206731 40.02589516-150.34116724 25.38227498-252.84650854-39.04965383-287.99119701 18.54858557-0.97624134 34.1684471 0.97624134 48.81206729 5.85744808 56.62199807 40.02589516 67.36065286 139.60251245 29.28724038 282.13374893-2.92872403 8.78617211-10.73865482 41.00213652-12.69113749 48.81206731z" fill="#54D8FC" p-id="8209"></path><path d="M100.85841712 480.76027695h-2.92872401c-3.9049654-0.97624134-5.85744807-5.85744807-3.9049654-9.76241347 12.69113749-33.19220576 61.5032048-143.50747783 165.96102879-166.93727015 3.9049654-0.97624134 7.80993077 1.9524827 8.78617209 5.85744808 0.97624134 3.9049654-1.9524827 7.80993077-5.85744807 8.78617212-96.64789324 22.45355095-143.50747783 126.91137495-155.22237396 158.15109802-1.9524827 1.9524827-3.9049654 3.9049654-6.83368944 3.9049654z" fill="#961919" p-id="8210"></path><path d="M112.57331329 530.54858557h-1.9524827c-3.9049654-0.97624134-6.83368941-4.88120672-5.85744808-8.78617212 8.78617211-41.97837786 45.88334324-183.53337302 142.53123648-214.77309608l11.71489614-2.92872404c3.9049654-0.97624134 7.80993077 1.9524827 8.78617211 5.85744808 0.97624134 3.9049654-1.9524827 7.80993077-5.85744806 8.78617212-2.92872403 0.97624134-6.83368941 1.9524827-9.76241347 2.92872404-88.83796247 29.28724036-123.9826509 164.0085461-132.76882301 204.03444127 0 2.92872403-3.9049654 4.88120672-6.83368941 4.88120673zM409.35068243 453.42551924c-3.9049654 0-6.83368941-2.92872403-6.83368944-5.85744808-4.88120672-25.38227498-25.38227498-107.38654806-102.5053413-121.05392687-2.92872403-0.97624134-4.88120672-0.97624134-7.80993079-0.97624137-3.9049654-0.97624134-6.83368941-3.9049654-5.85744805-8.7861721s3.9049654-6.83368941 8.78617211-5.85744808c2.92872403 0 5.85744807 0.97624134 7.80993075 0.97624137 85.90923843 15.61986151 109.33903073 105.43406535 114.22023747 132.76882303 0.97624134 3.9049654-1.9524827 7.80993077-5.85744808 8.7861721h-1.95248267z" fill="#961919" p-id="8211"></path><path d="M394.70706223 508.0950346c-3.9049654 0-6.83368941-2.92872403-6.83368941-6.83368942-5.85744807-61.5032048-27.33475769-166.93727013-95.67165192-175.72344226-3.9049654-0.97624134-6.83368941-3.9049654-5.85744805-7.80993074 0.97624134-3.9049654 3.9049654-6.83368941 7.80993075-5.85744807 78.09930768 9.76241345 101.52909997 123.00640958 108.36278939 189.39082107 0 2.92872403-2.92872403 6.83368941-7.80993076 6.83368942z" fill="#961919" p-id="8212"></path><path d="M336.13258147 312.84676545l-38.07341247 9.76241346c-1.9524827 0-2.92872403 1.9524827-1.9524827 3.90496538l10.73865482 39.04965386v0.97624134c0.97624134 3.9049654-3.9049654 5.85744807-5.8574481 2.928724L279.51058341 333.3478337l-0.97624133-0.97624134c-0.97624134-0.97624134-2.92872403-0.97624134-3.90496539 0l-30.26348174 20.50106828-2.92872404 1.95248267c-2.92872403 1.9524827-6.83368941-1.9524827-4.88120672-4.88120673l25.38227499-31.23972305c0.97624134-1.9524827 0.97624134-3.9049654 0-4.88120674L230.69851612 288.44073181c-2.92872403-2.92872403 0-7.80993077 2.92872404-5.85744807l2.92872403 0.97624134 34.16844712 14.64362018c1.9524827 0.97624134 3.9049654 0 4.88120671-1.95248269v-0.97624134l13.66737887-38.07341248c0.97624134-2.92872403 5.85744807-2.92872403 6.83368941 0v0.97624133l-2.92872403 41.00213652c0 1.9524827 0.97624134 3.9049654 2.92872403 3.9049654l39.04965382 1.95248269c4.88120672 0.97624134 4.88120672 6.83368941 0.97624135 7.80993076z" fill="#FFFFFF" p-id="8213"></path><path d="M302.94037571 374.34997025c-1.9524827 0-4.88120672-0.97624134-5.85744807-3.90496539l-20.50106827-35.14468847-32.21596442 22.45355097c-2.92872403 1.9524827-6.83368941 1.9524827-8.78617211-0.97624138-2.92872403-2.92872403-2.92872403-6.83368941 0-9.76241343L259.9857565 316.75173082l-31.23972306-25.38227497c-2.92872403-1.9524827-3.9049654-5.85744807-1.9524827-9.76241347 1.9524827-2.92872403 5.85744807-3.9049654 8.7861721-2.92872402l36.12092982 15.61986152 13.66737881-38.07341249c0.97624134-2.92872403 3.9049654-4.88120672 6.83368943-4.88120672 2.92872403 0 5.85744807 1.9524827 6.83368942 4.88120672v2.92872407l-2.92872402 41.0021365 39.04965382 1.95248269c3.9049654 0 5.85744807 2.92872403 6.83368942 6.83368942 0 3.9049654-1.9524827 6.83368941-4.88120672 7.80993075L299.03541032 326.51414429l10.73865482 39.04965386c0.97624134 3.9049654-0.97624134 7.80993077-3.90496539 8.7861721-0.97624134-0.97624134-1.9524827 0-2.92872404 0z m0-7.80993076z m-26.35851634-38.07341251c1.9524827 0 3.9049654 0.97624134 4.88120676 1.95248269l0.97624132 1.95248269 19.52482693 33.19220579-10.7386548-38.07341253c-0.97624134-1.9524827 0-3.9049654 0.97624132-5.85744805 0.97624134-1.9524827 2.92872403-2.92872403 3.9049654-2.92872404l38.07341248-9.76241346-39.04965382-1.9524827c-1.9524827 0-3.9049654-0.97624134-4.88120673-1.95248268-0.97624134-1.9524827-0.97624134-2.92872403-0.97624134-4.88120673l2.92872401-41.0021365-12.69113749 37.09717111c-0.97624134 1.9524827-1.9524827 3.9049654-3.90496539 4.88120674-1.9524827 0.97624134-3.9049654 0.97624134-5.85744808 0l-36.12092978-15.61986152 31.23972307 25.38227495c2.92872403 2.92872403 3.9049654 6.83368941 0.97624133 9.76241347L240.46092958 351.89641926l2.92872404-1.95248268 30.2634817-20.50106824c0-0.97624134 0.97624134-0.97624134 2.92872405-0.97624136z m59.5507221-15.61986153l-0.97624135-3.90496538 0.97624135 3.90496538z" fill="#961919" p-id="8214"></path><path d="M336.13258147 312.84676545l-38.07341247 9.76241346c-1.9524827 0-2.92872403 1.9524827-1.9524827 3.90496538l10.73865482 39.04965386-19.52482693-33.19220579c-0.97624134-1.9524827-2.92872403-1.9524827-4.88120674-0.97624134l-2.92872404 1.95248268c-0.97624134-0.97624134-2.92872403-0.97624134-3.90496539 0l-30.2634817 20.50106826c-0.97624134-0.97624134-1.9524827-2.92872403 0-4.88120673l25.38227499-31.23972305c0.97624134-1.9524827 0.97624134-3.9049654 0-4.88120673L239.48468823 287.46449046c-0.97624134-0.97624134-0.97624134-1.9524827-0.97624134-2.92872404l34.16844711 14.64362018c1.9524827 0.97624134 3.9049654 0 4.88120672-1.95248267v-0.97624136l1.95248269 0.97624136c1.9524827 0.97624134 3.9049654 0 4.88120671-1.9524827l13.66737888-37.09717115v0.97624138l-2.92872404 41.0021365c0 1.9524827 0.97624134 3.9049654 2.92872404 3.90496537l39.04965382 1.95248269c2.92872403 0 2.92872403 5.85744807-0.97624135 6.83368943z" fill="#F9F18F" p-id="8215"></path><path d="M336.13258147 312.84676545l-38.07341247 9.76241346c-1.9524827 0-2.92872403 1.9524827-1.9524827 3.90496538l10.73865482 39.04965386-13.66737885-23.42979235-3.90496538-13.66737882c-0.97624134-1.9524827 0.97624134-3.9049654 1.95248269-3.90496538l38.07341248-9.76241346c3.9049654-0.97624134 2.92872403-6.83368941-0.97624136-6.83368941l-39.04965381-1.95248271c-1.9524827 0-2.92872403-1.9524827-2.92872404-3.90496537l1.95248267-20.50106827 8.78617212-23.4297923v0.97624138l-2.92872404 41.0021365c0 1.9524827 0.97624134 3.9049654 2.92872404 3.90496537l39.04965383 1.95248269c3.9049654 0 3.9049654 5.85744807 0 6.83368943z" fill="#F4DD58" p-id="8216"></path><path d="M302.94037571 374.34997025c-1.9524827 0-4.88120672-0.97624134-5.85744807-3.90496539l-20.50106827-35.14468847-21.47730961 15.61986154-10.73865481 7.80993075c-2.92872403 1.9524827-6.83368941 1.9524827-8.78617211-0.97624132-2.92872403-2.92872403-2.92872403-6.83368941 0-9.76241346L259.9857565 316.75173082l-31.23972306-25.38227497c-2.92872403-1.9524827-3.9049654-5.85744807-1.9524827-9.76241347 1.9524827-2.92872403 5.85744807-3.9049654 8.7861721-2.92872402l36.12092982 15.61986152 13.66737881-38.07341249c0.97624134-2.92872403 4.88120672-4.88120672 7.8099308-4.88120672 3.9049654 0.97624134 5.85744807 3.9049654 5.85744805 7.80993079l-2.92872402 41.0021365 39.04965382 1.95248269c3.9049654 0 5.85744807 2.92872403 6.83368942 6.83368942 0 3.9049654-1.9524827 6.83368941-4.88120672 7.80993075L299.03541032 326.51414429l10.73865482 39.04965386c0.97624134 3.9049654-0.97624134 6.83368941-3.90496539 8.7861721-0.97624134-0.97624134-1.9524827 0-2.92872404 0z m-26.35851634-45.88334327c1.9524827 0 3.9049654 0.97624134 4.88120676 1.95248269l0.97624132 1.95248269 20.50106826 35.14468846-10.73865481-40.0258952c-0.97624134-1.9524827 0-3.9049654 0.97624137-5.85744805 0.97624134-1.9524827 2.92872403-2.92872403 3.90496537-2.92872404l38.07341248-9.76241346-39.04965382-1.9524827c-1.9524827 0-3.9049654-0.97624134-4.88120672-1.95248268-1.9524827-1.9524827-1.9524827-2.92872403-1.95248269-4.88120673l2.92872401-41.0021365-12.69113749 37.09717111c-0.97624134 1.9524827-1.9524827 3.9049654-3.90496539 4.88120674-1.9524827 0.97624134-3.9049654 0.97624134-5.85744808 0l-37.09717114-15.61986152 31.23972308 25.38227495c2.92872403 2.92872403 3.9049654 6.83368941 0.97624135 9.76241347l-25.382275 31.23972305 5.85744809-4.88120671 1.95248267-1.95248268 24.40603367-16.59610289h4.88120671z m59.5507221-15.61986153l-0.97624135-3.90496538 0.97624135 3.90496538z" fill="#961919" p-id="8217"></path><path d="M247.29461899 855.63695373c-46.85958459 0-84.93299709-16.59610288-106.41030671-45.88334324-30.26348172-41.97837786-27.33475769-69.31313556-23.42979228-106.4103067 0.97624134-9.76241345 1.9524827-20.50106826 2.92872405-32.21596443 2.92872403-63.4556875-13.66737884-154.24613264-23.4297923-186.46209705-10.73865482-36.12092977-21.4773096-89.81420383-20.50106829-118.12520282v-1.95248269c0.97624134-21.4773096 1.9524827-61.5032048 21.47730965-102.50534134 1.9524827-3.9049654 5.85744807-4.88120672 9.76241345-2.928724s4.88120672 5.85744807 2.92872403 9.76241344c-18.54858557 37.09717114-19.52482692 74.19434229-20.50106828 95.6716519v1.95248269c-0.97624134 25.38227498 9.76241345 77.12306631 19.52482691 113.24399612 9.76241345 34.1684471 27.33475769 124.95889226 23.42979231 191.34330375-0.97624134 11.71489617-1.9524827 23.42979229-2.92872404 33.19220578-3.9049654 37.09717114-5.85744807 59.55072211 21.47730961 96.64789324 21.4773096 30.26348172 63.4556875 43.93086055 114.22023746 39.04965383 53.69327404-4.88120672 103.48158265-31.23972305 120.07768557-62.47944612 13.66737884-25.38227498 15.61986151-47.83582594-6.83368944-112.26775477-20.50106826-57.59823941-3.9049654-119.10144417 5.85744809-160.10358073l1.9524827-8.7861721c1.9524827-7.80993077 9.76241345-40.02589516 12.69113747-48.81206733 38.07341248-144.48371918 25.38227498-246.98906048-35.14468847-280.18126626-31.23972305-17.57234421-75.17058365-16.59610288-129.84009898 1.95248272-18.54858557 6.83368941-36.12092977 13.66737884-51.74079134 23.42979231-3.9049654 1.9524827-7.80993077 0.97624134-9.76241345-2.92872405-1.9524827-3.9049654-0.97624134-7.80993077 2.92872404-9.76241344 15.61986151-9.76241345 34.1684471-17.57234421 53.69327403-24.40603365 58.57448076-19.52482692 106.4103067-20.50106826 141.55499513-0.97624137 68.3368942 37.09717114 82.98051441 142.53123651 42.95461925 296.77736913-2.92872403 9.76241345-10.73865482 41.97837786-12.6911375 48.81206728l-1.95248271 9.76241347c-10.73865482 41.00213652-25.38227498 97.62413458-6.8336894 151.31740862 24.40603363 69.31313556 21.4773096 94.69541053 5.85744806 123.98265091-18.54858557 35.14468845-73.21810095 64.43192884-131.7925817 70.2893769h-19.52482692z" fill="#961919" p-id="8218"></path><path d="M122.33572675 244.50987123c-1.9524827 0-2.92872403-0.97624134-4.88120675-1.95248268-2.92872403-2.92872403-3.9049654-6.83368941-0.97624135-10.73865482 9.76241345-12.69113749 20.50106826-23.42979229 33.19220577-34.16844707 2.92872403-2.92872403 7.80993077-1.9524827 10.7386548 0.97624132 2.92872403 2.92872403 1.9524827 7.80993077-0.97624136 10.73865481-11.71489617 9.76241345-22.45355095 20.50106826-31.23972305 31.23972306-1.9524827 2.92872403-3.9049654 3.9049654-5.85744806 3.90496538zM696.3656381 896.63909027c-6.83368941 0-12.69113749 0-18.54858559-0.97624136-57.59823941-3.9049654-129.84009898-27.33475769-146.43620188-58.57448076-11.71489617-22.45355095-13.66737884-58.57448076-4.88120671-96.64789323 0.97624134-3.9049654 4.88120672-6.83368941 8.78617211-5.85744806 3.9049654 0.97624134 6.83368941 4.88120672 5.85744807 8.78617209-7.80993077 33.19220576-6.83368941 66.38441152 3.9049654 85.90923844 11.71489617 22.45355095 75.17058365 46.85958459 133.74506434 50.76455 48.81206729 2.92872403 85.90923843-6.83368941 100.55285863-27.33475772 25.38227498-35.14468845 24.40603363-62.47944614 21.47730963-96.64789323 0-3.9049654 2.92872403-7.80993077 6.83368943-7.80993075 3.9049654 0 7.80993077 2.92872403 7.80993075 6.83368941 2.92872403 35.14468845 3.9049654 68.3368942-24.40603364 107.38654807-20.50106826 28.31099903-62.47944614 34.1684471-94.69541054 34.1684471z" fill="#961919" p-id="8219"></path><path d="M536.26205736 499.30886251c10.73865482 41.97837786 30.26348172 105.43406535 8.78617214 164.98478744-23.42979229 65.40817018-21.4773096 90.79044518-6.83368945 118.12520286 27.33475769 50.76454995 128.86385765 82.98051441 198.17699321 58.57448075 19.52482692-6.83368941 37.09717114-18.54858557 48.81206727-35.14468846 36.12092977-49.78830863 22.45355095-76.14682498 19.52482695-133.74506436-2.92872403-63.4556875 13.66737884-154.24613264 23.42979229-188.41457977s20.50106826-87.86172112 19.5248269-115.1964788c-0.97624134-41.97837786-1.9524827-154.24613264-150.34116724-204.03444128-63.4556875-21.4773096-112.26775477-18.54858557-145.45996053 4.88120673-56.62199807 40.02589516-67.36065286 139.60251245-29.28724039 282.13374893 2.92872403 7.80993077 11.71489617 40.02589516 13.66737885 47.83582596z" fill="#FFFFFF" p-id="8220"></path><path d="M683.67450057 855.63695373c-62.47944614 0-129.84009898-28.31099903-152.29364994-71.26561823-15.61986151-28.31099903-18.54858557-54.66951539 5.8574481-123.98265095 18.54858557-53.69327404 3.9049654-110.31527207-6.83368943-151.31740858l-1.95248269-9.76241346c-1.9524827-7.80993077-9.76241345-40.02589516-12.69113749-48.81206731-38.07341248-145.45996051-27.33475769-247.96530186 32.21596438-289.9436797l1.95248271-0.97624135c36.12092977-24.40603363 86.88547979-25.38227498 150.34116725-3.90496536 150.34116724 50.76454995 154.24613264 165.96102881 155.22237399 208.91564801v1.95248269c0.97624134 28.31099903-9.76241345 82.00427305-20.50106825 118.12520282-9.76241345 32.21596439-26.35851634 123.00640958-23.4297923 186.46209705 0.97624134 11.71489617 1.9524827 22.45355095 2.92872405 32.21596443 3.9049654 38.07341248 5.85744807 65.40817018-23.42979231 106.4103067-12.69113749 17.57234421-30.26348172 30.26348172-52.71703268 38.07341248-16.59610288 5.85744807-35.14468845 7.80993077-54.66951539 7.80993076zM543.09574678 497.35637983l1.95248272 8.7861721c10.73865482 41.00213652 26.35851634 102.50534131 5.85744804 160.10358071-22.45355095 64.43192884-20.50106826 86.88547979-6.83368939 112.26775478 26.35851634 48.81206729 124.95889226 78.09930768 189.39082107 55.6457567 19.52482692-6.83368941 35.14468845-17.57234421 44.90710192-32.21596441 27.33475769-37.09717114 24.40603363-59.55072211 21.47730961-96.64789324-0.97624134-9.76241345-1.9524827-20.50106826-2.92872403-33.19220573-2.92872403-66.38441152 13.66737884-157.17485669 23.42979229-191.34330379 10.73865482-36.12092977 20.50106826-87.86172112 19.52482691-113.24399613V365.56379815c-0.97624134-43.93086055-4.88120672-147.4124432-145.45996052-195.24826918-60.52696345-20.50106826-107.38654806-19.52482692-138.62627112 3.90496539l-1.95248269 0.97624132c-51.74079135 39.04965382-60.52696345 135.69754706-24.40603366 273.34757682 3.9049654 8.78617211 11.71489617 41.00213652 13.66737885 48.81206733z" fill="#961919" p-id="8221"></path><path d="M603.62271025 529.57234421c10.73865482 41.97837786 30.26348172 105.43406535 8.78617209 164.98478745-23.42979229 65.40817018-21.4773096 90.79044518-6.8336894 118.12520287 27.33475769 50.76454995 116.17272015 82.98051441 185.4858557 58.57448074 8.78617211-5.85744807 16.59610288-13.66737884 22.45355096-21.47730963 36.12092977-49.78830863 36.12092977-76.14682498 33.19220575-133.74506437-2.92872403-63.4556875 13.66737884-154.24613264 23.4297923-188.41457976s20.50106826-87.86172112 19.52482689-115.1964788c-0.97624134-41.97837786-1.9524827-154.24613264-150.34116723-204.03444126-48.81206729-16.59610288-88.83796247-18.54858557-119.10144419-8.78617212-56.62199807 40.02589516-67.36065286 139.60251245-29.28724038 282.13374895 1.9524827 7.80993077 10.73865482 41.00213652 12.69113751 47.83582593z" fill="#B7E2F9" p-id="8222"></path><path d="M828.15821977 495.40389712c-9.76241345 35.14468845-26.35851634 124.95889226-23.42979229 188.41457975 2.92872403 58.57448076 15.61986151 71.26561824-19.52482695 121.05392688-5.85744807 8.78617211-19.52482692 16.59610288-28.31099901 22.45355096-26.35851634 8.78617211-51.74079135 23.42979229-81.02803168 18.54858556 28.31099903-4.88120672 53.69327404-17.57234421 69.31313553-40.02589517 36.12092977-49.78830863 22.45355095-76.14682498 19.52482691-133.74506436-2.92872403-63.4556875 13.66737884-154.24613264 23.4297923-188.41457977s20.50106826-87.86172112 19.52482695-115.1964788c-0.97624134-41.00213652-1.9524827-144.48371918-132.76882306-197.20075184 6.83368941 1.9524827 13.66737884 3.9049654 21.47730963 6.8336894 148.38868455 49.78830863 149.36492592 162.05606342 150.34116725 204.03444129 2.92872403 25.38227498-7.80993077 79.07554901-18.54858558 113.2439961z" fill="#54D8FC" p-id="8223"></path><path d="M831.08694382 480.76027695c-2.92872403 0-5.85744807-1.9524827-6.83368943-4.88120672-11.71489617-31.23972305-58.57448076-135.69754706-155.222374-158.15109805-3.9049654-0.97624134-6.83368941-4.88120672-5.85744808-8.78617211 0.97624134-3.9049654 4.88120672-6.83368941 8.78617212-5.85744807 103.48158265 23.42979229 153.26989132 133.74506438 165.96102879 166.93727014 0.97624134 3.9049654 0 7.80993077-3.90496536 9.76241347-0.97624134 0.97624134-1.9524827 0.97624134-2.92872404 0.97624134z" fill="#961919" p-id="8224"></path><path d="M819.37204767 530.54858557c-2.92872403 0-6.83368941-1.9524827-6.83368943-5.85744808-8.78617211-40.02589516-43.93086055-174.74720091-132.76882306-204.03444128-2.92872403-0.97624134-6.83368941-1.9524827-9.76241343-2.92872403-3.9049654-0.97624134-6.83368941-4.88120672-5.85744808-8.78617211 0.97624134-3.9049654 4.88120672-6.83368941 8.78617211-5.85744807l11.71489616 2.92872402c96.64789324 32.21596439 132.76882302 172.79471821 142.53123649 214.77309609 0.97624134 3.9049654-1.9524827 7.80993077-5.85744809 8.7861721-0.97624134 0.97624134-1.9524827 0.97624134-1.95248267 0.97624136zM522.59467851 453.42551924h-0.97624135c-3.9049654-0.97624134-6.83368941-4.88120672-5.85744804-8.7861721 4.88120672-27.33475769 28.31099903-116.17272015 114.22023745-132.76882303 2.92872403-0.97624134 4.88120672-0.97624134 7.80993077-0.97624137 3.9049654-0.97624134 7.80993077 1.9524827 8.78617212 5.85744808 0.97624134 3.9049654-1.9524827 7.80993077-5.85744807 8.7861721-2.92872403 0-4.88120672 0.97624134-6.83368945 0.97624137-77.12306631 14.64362017-98.60037594 96.64789324-102.50534131 121.05392687-2.92872403 2.92872403-5.85744807 5.85744807-8.78617212 5.85744808z" fill="#961919" p-id="8225"></path><path d="M536.26205736 508.0950346c-3.9049654 0-6.83368941-3.9049654-6.83368943-7.80993077 6.83368941-67.36065286 30.26348172-180.60464898 108.36278941-190.36706242 3.9049654 0 7.80993077 1.9524827 7.80993076 5.85744808 0.97624134 3.9049654-1.9524827 7.80993077-5.85744807 7.80993077-68.3368942 8.78617211-88.83796247 114.22023746-95.67165188 176.69968357 0 4.88120672-3.9049654 7.80993077-7.80993079 7.80993077z" fill="#961919" p-id="8226"></path><path d="M594.83653813 312.84676545l38.07341249 9.76241346c1.9524827 0 2.92872403 1.9524827 1.95248268 3.90496538l-10.73865479 39.04965386v0.97624134c-0.97624134 3.9049654 3.9049654 5.85744807 5.85744806 2.928724l20.50106825-35.14468844 0.97624136-0.97624135c0.97624134-0.97624134 2.92872403-0.97624134 3.90496538 0l30.26348172 20.50106826 2.92872407 1.95248273c2.92872403 1.9524827 6.83368941-1.9524827 4.88120672-4.88120676l-25.38227502-31.23972307c-0.97624134-1.9524827-0.97624134-3.9049654 0-4.88120672l31.23972309-25.382275c2.92872403-2.92872403 0-7.80993077-2.92872404-5.85744806l-2.92872403 0.97624134-34.16844712 14.64362018c-1.9524827 0.97624134-3.9049654 0-4.88120674-1.95248267v-0.97624136L640.71988139 258.17725008c-0.97624134-2.92872403-5.85744807-2.92872403-6.83368945 0v0.97624138l2.92872404 41.0021365c0 1.9524827-0.97624134 3.9049654-2.92872404 3.90496537l-39.04965381 1.95248269c-2.92872403 0-2.92872403 5.85744807 0 6.83368943z" fill="#FFFFFF" p-id="8227"></path><path d="M629.00498522 374.34997025c-0.97624134 0-1.9524827 0-2.92872404-0.97624135-2.92872403-0.97624134-4.88120672-4.88120672-3.90496538-8.7861721l10.73865482-40.0258952-38.07341249-9.76241346c-3.9049654-0.97624134-5.85744807-3.9049654-4.88120673-7.80993077 0-3.9049654 2.92872403-5.85744807 6.83368943-6.83368941l40.02589515-1.9524827-2.92872404-41.00213651v-1.95248271c0.97624134-2.92872403 3.9049654-4.88120672 6.83368945-5.85744806 2.92872403 0 5.85744807 1.9524827 6.8336894 4.88120671l13.66737884 38.07341249 36.1209298-15.61986151c2.92872403-0.97624134 6.83368941 0 8.78617211 2.92872402 1.9524827 2.92872403 0.97624134 6.83368941-1.95248267 9.76241345l-31.23972309 25.382275 25.382275 31.23972305c1.9524827 2.92872403 1.9524827 6.83368941 0 9.7624135-1.9524827 2.92872403-5.85744807 2.92872403-8.78617214 0.97624129l-33.19220573-22.45355093-20.50106827 35.14468844c-1.9524827 2.92872403-4.88120672 4.88120672-6.83368942 4.88120676z m-32.21596439-65.40817018l37.09717111 9.76241346c1.9524827 0.97624134 3.9049654 1.9524827 4.88120674 2.92872404 0.97624134 1.9524827 0.97624134 3.9049654 0.97624135 5.85744805l-9.76241346 38.07341253 20.50106825-34.16844713 0.97624136-0.97624135c1.9524827-1.9524827 5.85744807-1.9524827 7.80993077 0l33.19220574 22.45355097-26.35851634-31.23972307c-2.92872403-2.92872403-1.9524827-7.80993077 0.97624136-9.76241346l31.23972307-25.38227498-1.95248268 0.97624133-34.16844712 14.64362019c-1.9524827 0.97624134-3.9049654 0.97624134-5.85744807 0-1.9524827-0.97624134-2.92872403-1.9524827-3.90496541-3.90496539l-13.66737882-38.07341246 3.90496538 41.00213651c0 1.9524827 0 3.9049654-1.95248267 4.88120671-0.97624134 0.97624134-2.92872403 1.9524827-4.88120675 1.95248271l-39.04965381 0.97624134z m-0.97624136 0l-0.97624134 2.92872404 0.97624134-2.92872404z" fill="#961919" p-id="8228"></path><path d="M594.83653813 312.84676545l38.07341249 9.76241346c1.9524827 0 2.92872403 1.9524827 1.95248268 3.90496538l-10.73865479 39.04965386 19.52482689-33.19220579c0.97624134-1.9524827 2.92872403-1.9524827 4.88120672-0.97624134l2.92872406 1.95248268c0.97624134-0.97624134 2.92872403-0.97624134 3.90496538 0l30.26348172 20.50106826c0.97624134-0.97624134 1.9524827-2.92872403 0-4.88120673l-25.382275-31.23972305c-0.97624134-1.9524827-0.97624134-3.9049654 0-4.88120673l31.23972309-25.38227499c0.97624134-0.97624134 0.97624134-1.9524827 0.97624132-2.92872404l-34.1684471 14.64362018c-1.9524827 0.97624134-3.9049654 0-4.88120672-1.95248267v-0.97624136l-1.95248269 0.97624136c-1.9524827 0.97624134-3.9049654 0-4.88120672-1.9524827l-13.66737884-37.09717115v0.97624138l2.92872402 41.0021365c0 1.9524827-0.97624134 3.9049654-2.92872402 3.90496537l-39.04965384 1.95248269c-1.9524827 0-1.9524827 5.85744807 0.97624135 6.83368943z" fill="#F9F18F" p-id="8229"></path><path d="M594.83653813 312.84676545l38.07341249 9.76241346c1.9524827 0 2.92872403 1.9524827 1.95248268 3.90496538l-10.73865479 39.04965386 13.66737883-23.42979235 3.90496537-13.66737882c0.97624134-1.9524827-0.97624134-3.9049654-1.95248268-3.90496538l-38.0734125-9.76241346c-3.9049654-0.97624134-2.92872403-6.83368941 0.97624136-6.83368941l39.04965382-1.95248271c1.9524827 0 2.92872403-1.9524827 2.92872403-3.90496537l-1.95248268-20.50106827-8.78617212-23.4297923v0.97624138l2.92872404 41.0021365c0 1.9524827-0.97624134 3.9049654-2.92872404 3.90496537l-39.04965381 1.95248269c-2.92872403 0-2.92872403 5.85744807 0 6.83368943z" fill="#F4DD58" p-id="8230"></path><path d="M629.00498522 374.34997025c-0.97624134 0-1.9524827 0-2.92872404-0.97624135-2.92872403-0.97624134-4.88120672-4.88120672-3.90496538-8.7861721l10.73865482-40.0258952-38.07341249-9.76241346c-3.9049654-0.97624134-5.85744807-3.9049654-4.88120673-7.80993077 0-3.9049654 2.92872403-5.85744807 6.83368943-6.83368941l40.02589515-1.9524827-2.92872404-41.00213651c0-3.9049654 1.9524827-6.83368941 5.85744809-7.80993077 3.9049654-0.97624134 6.83368941 0.97624134 7.80993076 4.88120671l13.66737884 38.07341249 36.1209298-15.61986151c2.92872403-0.97624134 6.83368941 0 8.78617211 2.92872402 1.9524827 2.92872403 0.97624134 6.83368941-1.95248267 9.76241345l-31.23972309 25.382275 25.382275 31.23972305c1.9524827 2.92872403 1.9524827 6.83368941 0 9.7624135-1.9524827 2.92872403-5.85744807 2.92872403-8.78617214 0.97624129l-10.7386548-7.80993075-22.45355093-15.61986153-20.50106827 35.14468847c-1.9524827 3.9049654-4.88120672 5.85744807-6.83368942 5.85744808z m-32.21596439-65.40817018l37.09717111 9.76241346c1.9524827 0.97624134 3.9049654 1.9524827 4.88120674 2.92872404 0.97624134 1.9524827 0.97624134 3.9049654 0.97624135 5.85744805l-10.73865481 39.04965387 20.50106826-36.12092982 0.97624134-0.97624133c1.9524827-1.9524827 5.85744807-1.9524827 7.80993077 0l26.35851635 18.54858556 6.83368943 4.88120674-26.35851637-31.23972307c-2.92872403-2.92872403-1.9524827-7.80993077 0.97624135-9.76241346l31.23972308-25.38227498-15.61986155 6.8336894-21.4773096 8.78617212c-1.9524827 0.97624134-3.9049654 0.97624134-5.85744807 0-1.9524827-0.97624134-2.92872403-1.9524827-3.90496539-3.90496539l-13.66737884-38.07341246 1.9524827 20.50106825 1.95248271 20.50106826c0 1.9524827 0 3.9049654-1.95248271 4.88120671-0.97624134 0.97624134-2.92872403 1.9524827-4.88120674 1.95248271l-37.09717111 0.97624134z m-0.97624136 0l-0.97624134 2.92872404 0.97624134-2.92872404z" fill="#961919" p-id="8231"></path><path d="M683.67450057 855.63695373c-6.83368941 0-13.66737884 0-20.50106826-0.97624135-58.57448076-5.85744807-112.26775477-34.1684471-131.79258168-70.28937688-15.61986151-28.31099903-18.54858557-54.66951539 5.8574481-123.98265095 18.54858557-53.69327404 3.9049654-110.31527207-6.83368943-151.31740858l-1.95248269-8.78617214c-1.9524827-7.80993077-9.76241345-40.02589516-12.69113749-48.81206728-41.00213652-154.24613264-25.38227498-259.68019801 42.95461919-296.77736913 35.14468845-19.52482692 82.98051441-18.54858557 141.55499515 0.97624137 5.85744807 1.9524827 11.71489617 3.9049654 16.59610289 5.85744804l0.97624136 0.97624136c132.76882302 53.69327404 135.69754706 157.17485669 136.67378839 202.08195861v1.95248269c0.97624134 28.31099903-9.76241345 82.00427305-20.50106824 118.12520282-9.76241345 32.21596439-26.35851634 123.00640958-23.42979231 186.46209705 0.97624134 11.71489617 1.9524827 22.45355095 2.92872405 32.21596443 3.9049654 38.07341248 5.85744807 65.40817018-23.42979231 106.4103067-16.59610288 22.45355095-41.97837786 37.09717114-74.1943423 42.95461918-9.76241345 1.9524827-20.50106826 2.92872403-32.21596442 2.92872406z m-63.45568745-699.96504494c-20.50106826 0-39.04965382 3.9049654-53.69327403 12.69113748-60.52696345 33.19220576-73.21810095 134.72130572-35.14468846 280.18126623 2.92872403 9.76241345 10.73865482 41.97837786 12.69113752 48.81206733l1.95248267 8.7861721c10.73865482 41.00213652 26.35851634 102.50534131 5.85744808 160.10358071-22.45355095 64.43192884-20.50106826 86.88547979-6.8336894 112.26775478 16.59610288 31.23972305 66.38441152 56.62199807 120.0776855 62.47944614 17.57234421 1.9524827 34.1684471 0.97624134 49.78830866-1.95248271 28.31099903-4.88120672 50.76454995-18.54858557 65.40817015-37.09717114 27.33475769-37.09717114 24.40603363-59.55072211 21.47730962-96.64789324-0.97624134-9.76241345-1.9524827-20.50106826-2.92872401-33.19220573-2.92872403-66.38441152 13.66737884-157.17485669 23.42979229-191.34330379 10.73865482-35.14468845 20.50106826-87.86172112 19.52482689-113.24399613V365.56379815c-0.97624134-41.00213652-3.9049654-137.65002975-126.91137494-188.41457975l-0.97624135-0.97624137c-5.85744807-1.9524827-10.73865482-3.9049654-16.59610288-5.85744806-30.26348172-9.76241345-55.64575673-14.64362017-77.12306631-14.64362018z" fill="#961919" p-id="8232"></path></svg>