<?xml version="1.0" standalone="no"?><!DOCTYPE svg PUBLIC "-//W3C//DTD SVG 1.1//EN" "http://www.w3.org/Graphics/SVG/1.1/DTD/svg11.dtd"><svg t="1634049163186" class="icon" viewBox="0 0 1024 1024" version="1.1" xmlns="http://www.w3.org/2000/svg" p-id="7890" xmlns:xlink="http://www.w3.org/1999/xlink" width="200" height="200"><defs><style type="text/css"></style></defs><path d="M677.65595338 490.94979598c-0.91522626-2.74567878-1.83045253-5.49135757-1.83045253-8.23703634-0.91522626-1.83045253-0.91522626-3.66090506-1.83045253-6.40658384-0.91522626-2.74567878-1.83045253-6.40658382-3.66090502-9.15226262-0.91522626-1.83045253-0.91522626-2.74567878-1.83045255-4.57613129-1.83045253-3.66090506-2.74567878-6.40658382-4.57613129-10.06748892 0-0.91522626-0.91522626-1.83045253-0.91522627-1.83045251-6.40658382-11.8979414-14.64362017-21.96543027-23.79588282-32.03291917 0 0 0-0.91522626-0.91522626-0.91522624-2.74567878-2.74567878-4.5761313-4.5761313-7.32181009-6.40658386-1.83045253-0.91522626-2.74567878-2.74567878-4.5761313-3.66090501l-2.74567881-2.7456788c-1.83045253-0.91522626-3.66090506-2.74567878-5.49135754-3.66090505-0.91522626-0.91522626-1.83045253-0.91522626-1.83045255-1.83045252-2.74567878-1.83045253-5.49135757-3.66090506-8.23703634-4.5761313-1.83045253-0.91522626-3.66090506-1.83045253-4.57613131-2.74567879 0 0-0.91522626 0-0.91522626-0.91522627-0.91522626 0-1.83045253-0.91522626-1.83045254-0.91522624l-10.98271511-5.49135758c-1.83045253-0.91522626-4.5761313-1.83045253-6.40658384-1.83045252l-8.23703636-2.74567878c-2.74567878-0.91522626-4.5761313-0.91522626-7.32181008-1.83045256-2.74567878-0.91522626-6.40658382-0.91522626-9.15226264-1.8304525-1.83045253 0-4.5761313-0.91522626-6.40658382-0.91522625-5.49135757-0.91522626-10.98271516-0.91522626-16.47407273-0.91522625-81.4551373 0-147.35142815 65.89629086-147.35142811 147.35142812 0 4.5761313 0 9.15226261 0.91522625 12.81316764 0 1.83045253 0 2.74567878 0.91522628 4.57613131 0 2.74567878 0.91522626 6.40658382 1.83045251 9.15226262 0 1.83045253 0.91522626 2.74567878 0.91522626 4.57613131l2.7456788 10.98271516c0.91522626 1.83045253 0.91522626 3.66090506 1.8304525 5.49135757 0.91522626 1.83045253 1.83045253 4.5761313 2.74567881 6.40658381l2.74567877 5.49135759c0.91522626 2.74567878 1.83045253 4.5761313 3.66090504 6.40658384 0.91522626 1.83045253 1.83045253 3.66090506 3.66090506 6.40658381 1.83045253 2.74567878 3.66090506 5.49135757 4.57613131 8.23703636 0.91522626 0.91522626 1.83045253 2.74567878 2.74567878 3.66090504 1.83045253 2.74567878 3.66090506 4.5761313 5.49135758 7.32181009 0.91522626 0.91522626 0.91522626 1.83045253 1.83045251 2.74567878 5.49135757 6.40658382 11.8979414 12.81316766 19.21975148 19.2197515l0.91522628 0.91522626 10.98271512 8.23703636c6.40658382 4.5761313 13.72839391 8.23703635 20.13497778 11.89794141 0.91522626 0 1.83045253 0.91522626 2.74567878 0.91522629 1.83045253 0.91522626 3.66090506 1.83045253 6.40658383 2.74567877l8.23703635 2.74567878c1.83045253 0.91522626 3.66090506 0.91522626 5.49135758 1.83045253 2.74567878 0.91522626 5.49135757 1.83045253 9.1522626 2.74567879 0.91522626 0 2.74567878 0 3.66090506 0.91522624 11.8979414 2.74567878 23.79588279 4.5761313 36.60905046 4.57613132 77.79423226 0 140.02961805-63.15061206 140.02961805-140.02961805 0-12.81316766-1.83045253-24.71110907-4.5761313-36.60905047-5.49135757-2.74567878-6.40658382-4.5761313-6.40658383-5.49135757z m250.77199569 23.7958828h-115.31850897c-1.83045253-36.60905046-8.23703635-65.89629086-20.13497775-92.43785243l108.91192515-44.84608682c3.66090506-1.83045253 5.49135757-5.49135757 3.66090502-9.15226264-1.83045253-3.66090506-5.49135757-5.49135757-9.15226261-3.66090504l-109.82715139 44.84608684c-12.81316766-29.28724036-31.1176929-54.91357571-52.16789693-77.79423226l83.28558982-83.28558982c2.74567878-2.74567878 2.74567878-7.3218101 0-10.06748888s-7.3218101-2.74567878-10.06748887 0l-83.28558984 83.28558984c-22.88065653-21.96543027-49.42221811-39.35472924-77.79423223-52.16789692l44.84608683-108.91192515c1.83045253-3.66090506 0-8.23703635-3.66090505-9.15226263-3.66090506-1.83045253-8.23703635 0-9.15226261 3.66090505l-44.84608685 108.91192514c-28.37201411-10.98271516-59.48970703-17.38929897-92.43785243-18.30452523v-118.979414c0-3.66090506-3.66090506-7.3218101-7.32181009-7.3218101s-7.3218101 3.66090506-7.3218101 7.3218101v118.06418774c-32.03291916 0.91522626-63.15061206 7.3218101-92.43785243 18.30452522l-44.84608681-108.91192513c-1.83045253-3.66090506-5.49135757-5.49135757-9.1522626-3.66090505-3.66090506 1.83045253-5.49135757 5.49135757-3.66090506 9.15226262L420.47737383 268.54981437c-29.28724036 12.81316766-54.91357571 31.1176929-77.79423225 52.16789694L259.39755177 237.43212148c-2.74567878-2.74567878-7.3218101-2.74567878-10.0674889 0s-2.74567878 7.3218101 0 10.06748888l83.28558983 83.28558982c-21.96543027 22.88065653-39.35472924 49.42221811-52.1678969 77.79423225l-108.91192518-44.84608684c-3.66090506-1.83045253-8.23703635 0-9.1522626 3.66090506-1.83045253 3.66090506 0 8.23703635 3.66090504 9.15226262l107.99669889 45.76131308c-10.98271516 28.37201411-17.38929897 59.48970703-18.30452523 92.43785243H138.58768522c-3.66090506 0-7.3218101 3.66090506-7.32181011 7.32181011s3.66090506 7.3218101 7.32181011 7.32181008H255.73664672c0.91522626 32.03291916 7.3218101 63.15061206 18.30452523 92.43785243l-108.91192516 44.84608683c-3.66090506 1.83045253-5.49135757 5.49135757-3.66090504 9.15226262 0.91522626 2.74567878 3.66090506 4.5761313 6.40658386 4.57613131 0.91522626 0 1.83045253 0 2.74567877-0.91522625l108.91192513-44.84608684c12.81316766 29.28724036 31.1176929 54.91357571 52.16789692 77.79423225l-83.28558982 83.28558981c-2.74567878 2.74567878-2.74567878 7.3218101 0 10.06748889 1.83045253 1.83045253 3.66090506 1.83045253 5.49135758 1.83045252s3.66090506-0.91522626 5.49135758-1.83045252l83.28558981-83.28558983c22.88065653 21.96543027 49.42221811 39.35472924 77.79423225 52.16789694l-44.84608681 108.91192512c-1.83045253 3.66090506 0 8.23703635 3.66090504 9.15226264 0.91522626 0 1.83045253 0.91522626 2.74567878 0.91522626 2.74567878 0 5.49135757-1.83045253 6.40658384-4.57613133l44.84608682-108.91192513c26.54156159 11.8979414 55.82880198 19.21975149 92.43785241 20.13497776v115.31850896c0 3.66090506 3.66090506 7.3218101 7.32181011 7.32181012s7.3218101-3.66090506 7.32181009-7.32181012v-115.31850896h2.74567879c32.03291916 0 63.15061206-5.49135757 91.52262617-15.55884646l43.01563431 103.42056758c0.91522626 2.74567878 3.66090506 4.5761313 6.40658383 4.57613132 0.91522626 0 1.83045253 0 2.7456788-0.91522628 3.66090506-1.83045253 5.49135757-5.49135757 3.66090502-9.15226261l-43.0156343-103.42056757c30.20246662-12.81316766 57.6592545-31.1176929 80.53991104-53.08312319l78.70945849 78.70945851c1.83045253 1.83045253 3.66090506 1.83045253 5.49135759 1.83045251 1.83045253 0 3.66090506-0.91522626 5.49135756-1.83045251 2.74567878-2.74567878 2.74567878-7.3218101 0-10.06748887l-78.70945852-78.70945852c21.96543027-22.88065653 40.26995552-50.33744441 53.0831232-80.53991104l103.42056758 43.01563432c0.91522626 0 1.83045253 0.91522626 2.74567877 0.91522627 2.74567878 0 5.49135757-1.83045253 6.40658383-4.57613133 1.83045253-3.66090506 0-8.23703635-3.66090504-9.15226261l-103.42056758-43.0156343c10.06748889-28.37201411 15.55884645-59.48970703 15.55884645-91.52262618v-2.74567879h115.31850897c3.66090506 0 7.3218101-3.66090506 7.3218101-7.32181009s-2.74567878-6.40658382-7.3218101-6.40658383z m-395.37774505 213.24771899c-97.01398373 0-177.55389477-66.8115171-199.51932505-157.41891701-2.74567878-12.81316766-3.66090506-25.62633533-3.66090505-39.35472927 0-118.06418777 95.18353122-213.24771898 213.24771898-213.24771897 13.72839391 0 26.54156159 0.91522626 39.35472927 3.66090505 89.69217365 21.96543027 157.41891702 103.42056757 157.41891699 199.51932504-0.91522626 114.40328272-93.35307871 206.84113514-206.84113514 206.84113516z" fill="#C4ADAD" p-id="7891"></path><path d="M484.54321216 242.0082528c-149.18188065 0-269.9917472 120.80986655-269.99174721 269.9917472s120.80986655 269.9917472 269.99174721 269.9917472 269.9917472-120.80986655 269.99174719-269.9917472S633.72509279 242.0082528 484.54321216 242.0082528z m0 483.23946618c-118.06418777 0-213.24771898-95.18353122-213.247719-213.24771898S366.47902436 299.6675073 484.54321216 299.6675073s213.24771898 95.18353122 213.24771897 213.24771896-96.09875748 212.3324927-213.24771897 212.33249272z" fill="#FFFFFF" p-id="7892"></path><path d="M695.04525236 341.76791532c-42.10040802-48.50699189-110.74237767-69.5571959-180.29957358-69.55719589-149.18188065 0-269.9917472 120.80986655-269.99174721 269.99174719 0 69.5571959 20.13497775 138.1991655 69.55719591 180.29957357 55.82880198 48.50699189 100.67488881 69.5571959 180.29957355 69.5571959 149.18188065 0 269.9917472-120.80986655 269.9917472-269.9917472 0-79.62468477-21.05020402-124.47077158-69.55719587-180.29957357z m-414.59749656 180.29957357c0-118.06418777 95.18353122-213.24771898 213.24771896-213.24771899 64.06583831 0 121.72509279 28.37201411 161.07982207 73.21810094 36.60905046 56.74402823 47.59176558 56.74402823 52.16789692 140.02961805 7.3218101 117.14896149-95.18353122 213.24771898-213.24771899 213.24771896-64.06583831 0-93.35307871-15.55884645-140.02961806-52.16789692-44.84608682-39.35472924-73.21810095-97.01398373-73.2181009-161.07982204z" fill="#F9F18F" p-id="7893"></path><path d="M754.53495935 512.91522626c0 149.18188065-120.80986655 269.9917472-269.99174719 269.99174722-8.23703635 0-15.55884645 0-22.88065657-0.91522628 140.94484429-10.06748889 251.68722197-126.30122411 251.68722198-269.9917472 0-69.5571959-26.54156159-132.70780794-69.5571959-180.29957357-24.71110907-27.45678784-54.91357571-49.42221811-88.77694738-64.98106456 51.25267068 8.23703635 97.92921001 28.37201411 129.96212919 64.98106456 48.50699189 55.82880198 69.5571959 100.67488881 69.55719587 181.21479983z" fill="#FFD527" p-id="7894"></path><path d="M484.54321216 512.91522626m-140.02961807 0a140.02961805 140.02961805 0 1 0 280.0592361 0 140.02961805 140.02961805 0 1 0-280.0592361 0Z" fill="#FFFFFF" p-id="7895"></path><path d="M634.64031907 522.06748889c0 77.79423226-63.15061206 140.02961805-140.02961804 140.02961805-21.05020402 0-41.18518177-4.5761313-58.57448077-12.81316771-33.86337166-25.62633533-55.82880198-65.89629086-55.82880193-111.6576039 0-77.79423226 63.15061206-140.02961805 140.02961802-140.02961805 21.05020402 0 41.18518177 4.5761313 58.57448075 12.81316768 33.86337166 25.62633533 55.82880198 65.89629086 55.82880197 111.65760393z" fill="#FFC773" p-id="7896"></path><path d="M624.57283019 512.91522626c0 77.79423226-63.15061206 140.02961805-140.02961803 140.02961803-7.3218101 0-13.72839391-0.91522626-21.05020405-1.83045252 67.72674338-10.06748889 119.89464028-68.64196964 119.89464031-139.11439177 0-45.76131308-21.96543027-86.03126862-55.82880197-111.65760391-6.40658382-4.5761313-13.72839391-9.15226261-20.13497775-12.81316767h3.66090504c21.05020402 0 41.18518177 4.5761313 58.57448076 12.81316767 32.94814542 25.62633533 54.91357571 66.8115171 54.91357569 112.57283017z" fill="#FF9C31" p-id="7897"></path><path d="M367.39425065 441.52757783c-0.91522626 0-2.74567878 0-3.66090506-0.91522625-2.74567878-1.83045253-3.66090506-6.40658382-1.83045253-9.15226261 3.66090506-5.49135757 8.23703635-10.98271516 11.89794144-15.55884645 2.74567878-2.74567878 6.40658382-2.74567878 10.06748886-0.91522625 2.74567878 2.74567878 2.74567878 6.40658382 0.91522627 10.06748887-3.66090506 4.5761313-7.3218101 9.15226261-10.98271513 14.64362019-1.83045253 0.91522626-3.66090506 1.83045253-6.40658385 1.8304525z" fill="#961919" p-id="7898"></path><path d="M484.54321216 659.35142815c-21.96543027 0-42.10040802-4.5761313-61.32015953-13.72839392-52.16789693-23.79588279-85.11604236-76.87900598-85.11604236-133.62303423 0-22.88065653 5.49135757-44.84608682 14.64362017-64.98106459 1.83045253-3.66090506 5.49135757-4.5761313 9.15226262-2.74567879s4.5761313 5.49135757 2.74567879 9.15226262c-9.15226261 18.30452524-13.72839391 38.43950299-13.72839392 58.57448076 0 52.16789693 30.20246662 99.75966253 77.79423225 121.72509279 23.79588279 10.98271516 50.33744441 14.64362017 75.96377972 10.98271515 64.98106459-9.15226261 113.48805645-65.89629086 113.48805647-131.79258168 0-42.10040802-19.21975149-80.53991103-53.08312318-106.16624636-6.40658382-4.5761313-12.81316766-8.23703635-19.21975153-11.89794139-19.21975149-10.06748889-39.35472924-14.64362017-61.3201595-14.64362018-27.45678784 0-53.99834945 8.23703635-76.87900598 23.7958828-2.74567878 1.83045253-7.3218101 1.83045253-9.15226263-1.83045253s-1.83045253-7.3218101 1.83045254-9.15226262c24.71110907-18.30452524 53.99834945-27.45678784 84.20081607-27.45678783 23.79588279 0 46.67653934 5.49135757 67.72674336 16.47407269 7.3218101 3.66090506 14.64362017 8.23703635 21.05020402 13.72839394 36.60905046 28.37201411 58.57448076 70.47242217 58.57448074 117.14896148 0 72.30287467-53.99834945 135.45348673-125.38599785 145.52097559-7.3218101 0.91522626-14.64362017 0.91522626-21.96543027 0.9152263z" fill="#961919" p-id="7899"></path><path d="M484.54321216 244.75393157c-3.66090506 0-7.3218101-2.74567878-7.3218101-7.32181009V117.53748121c0-3.66090506 2.74567878-7.3218101 7.3218101-7.3218101s7.3218101 2.74567878 7.32181009 7.3218101v120.80986652c-0.91522626 3.66090506-3.66090506 6.40658382-7.32181009 6.40658384zM379.29219206 265.80413561c-2.74567878 0-5.49135757-1.83045253-6.40658383-4.57613133l-45.7613131-111.65760393c-1.83045253-3.66090506 0-7.3218101 3.66090505-9.1522626 3.66090506-1.83045253 7.3218101 0 9.15226261 3.66090502l45.7613131 111.65760395c1.83045253 3.66090506 0 7.3218101-3.66090505 9.1522626-0.91522626 0.91522626-1.83045253 0.91522626-2.74567878 0.91522629zM290.51524467 325.29384261c-1.83045253 0-3.66090506-0.91522626-4.57613132-1.83045254L199.90784476 237.43212148c-2.74567878-2.74567878-2.74567878-7.3218101 0-10.06748887s7.3218101-2.74567878 10.06748888 0l85.11604234 85.11604233c2.74567878 2.74567878 2.74567878 7.3218101 0 10.06748888-0.91522626 1.83045253-2.74567878 2.74567878-4.57613131 2.74567879zM231.02553765 414.07078999c-0.91522626 0-1.83045253 0-2.74567878-0.91522626l-111.65760394-45.76131308c-3.66090506-1.83045253-5.49135757-5.49135757-3.66090503-9.15226262 1.83045253-3.66090506 5.49135757-5.49135757 9.1522626-3.66090505l111.65760393 45.76131311c3.66090506 1.83045253 5.49135757 5.49135757 3.66090505 9.1522626-1.83045253 3.66090506-3.66090506 4.5761313-6.40658383 4.5761313zM209.97533364 519.3218101H89.16546708c-3.66090506 0-7.3218101-2.74567878-7.3218101-7.3218101s2.74567878-7.3218101 7.3218101-7.3218101H209.97533364c3.66090506 0 7.3218101 2.74567878 7.3218101 7.3218101s-3.66090506 7.3218101-7.3218101 7.3218101zM119.36793373 670.3341433c-2.74567878 0-5.49135757-1.83045253-6.40658383-4.57613133-1.83045253-3.66090506 0-7.3218101 3.66090503-9.15226262l111.65760394-45.76131308c3.66090506-1.83045253 7.3218101 0 9.15226261 3.66090504 1.83045253 3.66090506 0 7.3218101-3.66090505 9.1522626l-111.65760393 45.76131311c-0.91522626 0.91522626-1.83045253 0.91522626-2.74567877 0.91522628zM204.48397605 798.46581991c-1.83045253 0-3.66090506-0.91522626-4.57613129-1.83045252-2.74567878-2.74567878-2.74567878-7.3218101 0-10.06748887l85.11604235-85.11604234c2.74567878-2.74567878 7.3218101-2.74567878 10.06748887 0s2.74567878 7.3218101 0 10.06748888l-85.11604234 85.11604233c-1.83045253 1.83045253-3.66090506 1.83045253-5.49135759 1.83045252zM332.6156527 884.49708853c-0.91522626 0-1.83045253 0-2.74567878-0.91522628-3.66090506-1.83045253-5.49135757-5.49135757-3.66090505-9.1522626l45.76131308-111.65760393c1.83045253-3.66090506 5.49135757-5.49135757 9.15226263-3.66090504 3.66090506 1.83045253 5.49135757 5.49135757 3.66090505 9.1522626l-45.76131311 111.65760395c-0.91522626 2.74567878-3.66090506 4.5761313-6.40658382 4.5761313zM484.54321216 914.69955516c-3.66090506 0-7.3218101-2.74567878-7.3218101-7.32181009V786.56787852c0-3.66090506 2.74567878-7.3218101 7.3218101-7.32181009s7.3218101 2.74567878 7.32181009 7.32181009v120.80986655c-0.91522626 3.66090506-3.66090506 7.3218101-7.32181009 7.32181009zM635.55554532 884.49708853c-2.74567878 0-5.49135757-1.83045253-6.40658383-4.5761313l-45.76131307-111.65760395c-1.83045253-3.66090506 0-7.3218101 3.66090504-9.1522626 3.66090506-1.83045253 7.3218101 0 9.15226263 3.66090504l45.76131307 111.65760393c1.83045253 3.66090506 0 7.3218101-3.66090505 9.1522626-0.91522626 0.91522626-1.83045253 0.91522626-2.74567879 0.91522628zM763.68722197 798.46581991c-1.83045253 0-3.66090506-0.91522626-4.57613129-1.83045252l-85.11604236-85.11604233c-2.74567878-2.74567878-2.74567878-7.3218101 0-10.06748888s7.3218101-2.74567878 10.06748889 0l85.11604235 85.11604234c2.74567878 2.74567878 2.74567878 7.3218101 0 10.06748887-1.83045253 1.83045253-3.66090506 1.83045253-5.49135759 1.83045252zM849.71849058 670.3341433c-0.91522626 0-1.83045253 0-2.74567879-0.91522628l-111.65760394-45.76131311c-3.66090506-1.83045253-5.49135757-5.49135757-3.66090503-9.1522626 1.83045253-3.66090506 5.49135757-5.49135757 9.15226259-3.66090504l111.65760397 45.76131308c3.66090506 1.83045253 5.49135757 5.49135757 3.66090501 9.15226262-1.83045253 3.66090506-3.66090506 4.5761313-6.40658381 4.57613133zM879.92095723 519.3218101H759.11109068c-3.66090506 0-7.3218101-2.74567878-7.32181011-7.3218101s2.74567878-7.3218101 7.32181011-7.3218101h120.80986655c3.66090506 0 7.3218101 2.74567878 7.32181008 7.3218101s-3.66090506 7.3218101-7.32181008 7.3218101zM738.06088665 414.07078999c-2.74567878 0-5.49135757-1.83045253-6.40658383-4.5761313-1.83045253-3.66090506 0-7.3218101 3.66090503-9.1522626l111.65760394-45.76131311c3.66090506-1.83045253 7.3218101 0 9.1522626 3.66090505 1.83045253 3.66090506 0 7.3218101-3.66090501 9.15226262l-111.65760397 45.76131308c-0.91522626 0.91522626-1.83045253 0.91522626-2.74567876 0.91522626zM678.57117964 325.29384261c-1.83045253 0-3.66090506-0.91522626-4.57613132-1.83045254-2.74567878-2.74567878-2.74567878-7.3218101 0-10.06748886L759.11109068 228.27985887c2.74567878-2.74567878 7.3218101-2.74567878 10.06748888 0s2.74567878 7.3218101 0 10.06748886l-85.11604235 85.11604234c-1.83045253 0.91522626-3.66090506 1.83045253-5.49135757 1.83045254zM588.87900598 265.80413561c-0.91522626 0-1.83045253 0-2.74567878-0.91522629-3.66090506-1.83045253-5.49135757-5.49135757-3.66090503-9.1522626l45.76131305-111.65760395c1.83045253-3.66090506 5.49135757-5.49135757 9.15226264-3.66090502 3.66090506 1.83045253 5.49135757 5.49135757 3.66090503 9.1522626l-45.76131307 111.65760393c-0.91522626 2.74567878-3.66090506 4.5761313-6.40658384 4.57613133z" fill="#961919" p-id="7900"></path><path d="M533.96543027 576.06583831H427.79918391s-4.5761313-20.13497775 22.88065655-17.38929897c27.45678784 1.83045253 0 0 0 0l32.03291918 7.32181011 31.11769289-7.32181011c0-0.91522626 29.28724036 1.83045253 20.13497774 17.38929897z" fill="#FFFFFF" p-id="7901"></path><path d="M535.79588279 579.72674338H425.05350514l-0.91522626-2.74567879s-1.83045253-9.15226261 3.66090503-15.55884648c4.5761313-5.49135757 11.8979414-7.3218101 22.88065655-6.40658382l11.89794143 0.91522626v1.83045253l20.13497775 4.57613133 31.11769289-7.32181012h0.91522625c1.83045253 0 18.30452524 1.83045253 22.88065655 10.98271516 0.91522626 2.74567878 1.83045253 6.40658382-0.91522626 12.81316765l-0.91522628 0.91522628z m-105.25102009-7.32181009h100.67488879c0.91522626-2.74567878 0-3.66090506 0-3.66090506-1.83045253-3.66090506-11.8979414-6.40658382-17.38929896-7.32181012l-31.11769289 7.32181012-32.94814544-7.32181012c-8.23703635-0.91522626-13.72839391 0.91522626-17.38929897 4.57613134-0.91522626 1.83045253-1.83045253 4.5761313-1.83045253 6.40658384z" fill="#961919" p-id="7902"></path><path d="M533.96543027 576.06583831H436.03622026s-3.66090506-15.55884645 14.6436202-17.38929897h8.23703635l27.45678786 6.40658385 4.57613131 0.91522626 28.37201412-6.40658387c8.23703635 0.91522626 21.05020402 5.49135757 14.64362017 16.47407273z" fill="#F9F18F" p-id="7903"></path><path d="M587.04855346 533.96543027l-103.42056757 33.86337171h-2.74567879l-101.59011504-32.94814545-2.74567879-0.91522626s-9.15226261-3.66090506-4.57613132-13.72839392c0.91522626-1.83045253 17.38929897-43.93086055 58.57448075-60.40493328 27.45678784-10.98271516 47.59176558-10.06748889 52.16789694-10.06748887 6.40658382 0 25.62633533 0 50.33744438 10.06748887 16.4740727 6.40658382 28.37201411 16.4740727 37.52427674 26.5415616 14.64362017 16.4740727 21.05020402 32.03291916 21.05020401 33.86337168 5.49135757 10.98271516-4.5761313 13.72839391-4.57613131 13.72839392z" fill="#FFFFFF" p-id="7904"></path><path d="M484.54321216 571.48970703h-4.57613132l-103.42056757-33.8633717c-0.91522626 0-5.49135757-1.83045253-7.3218101-7.32181009-1.83045253-3.66090506-0.91522626-7.3218101 0-10.98271514 3.66090506-8.23703635 21.05020402-46.67653934 61.32015953-62.23538581 26.54156159-10.06748889 45.76131308-10.06748889 52.16789694-10.06748888h0.91522625c21.05020402 0 39.35472924 5.49135757 52.1678969 10.06748888 14.64362017 5.49135757 27.45678784 14.64362017 39.35472927 27.45678787 11.8979414 13.72839391 19.21975149 27.45678784 21.9654303 33.86337166 1.83045253 4.5761313 1.83045253 8.23703635 0.91522626 10.98271515-1.83045253 4.5761313-7.3218101 6.40658382-7.32181012 7.3218101L484.54321216 571.48970703z m-3.66090506-7.3218101h1.83045254l103.42056756-33.86337169s2.74567878-0.91522626 3.66090506-3.66090507c0.91522626-1.83045253 0-3.66090506-0.91522628-5.49135756-2.74567878-5.49135757-9.15226261-19.21975149-21.050204-32.9481454-10.98271516-11.8979414-22.88065653-21.05020402-36.60905049-25.62633532-11.8979414-4.5761313-29.28724036-10.06748889-49.42221811-9.15226265h-0.91522628c-6.40658382 0-24.71110907 0-49.42221813 9.15226265-37.52427671 14.64362017-53.99834945 51.25267068-56.7440282 58.57448072-0.91522626 2.74567878-0.91522626 4.5761313-0.91522627 5.49135756 0.91522626 1.83045253 3.66090506 3.66090506 3.66090503 3.66090507l1.83045253 0.91522625 101.59011504 32.94814544z m106.16624636-30.20246666z m0 0z" fill="#961919" p-id="7905"></path><path d="M587.04855346 533.96543027l-103.42056757 33.86337171h-2.74567879l-101.59011504-32.94814545c0-1.83045253 0-3.66090506 0.91522627-5.49135756 0.91522626-1.83045253 17.38929897-43.93086055 58.57448072-60.40493326 27.45678784-10.98271516 47.59176558-10.06748889 52.16789693-10.0674889 6.40658382 0 25.62633533 0 50.33744438 10.0674889 11.8979414 4.5761313 21.05020402 10.98271516 29.2872404 18.30452522 14.64362017 16.4740727 21.05020402 32.03291916 21.05020401 33.86337168 5.49135757 10.06748889-4.5761313 12.81316766-4.57613131 12.81316766z" fill="#F9F18F" p-id="7906"></path><path d="M587.04855346 531.21975149l-103.42056757 33.8633717h-2.74567879l-101.59011504-32.94814544v-2.74567878l92.43785242 30.20246661h3.66090506l103.42056756-33.86337167s9.15226261-3.66090506 5.49135757-13.72839391c-0.91522626-1.83045253-8.23703635-20.13497775-24.71110909-37.52427671 4.5761313 2.74567878 8.23703635 5.49135757 11.89794145 9.1522626 14.64362017 16.4740727 21.05020402 32.03291916 21.050204 33.86337168 4.5761313 10.06748889-5.49135757 13.72839391-5.49135757 13.72839392z" fill="#F4DD58" p-id="7907"></path><path d="M482.71275964 568.74402823c-1.83045253 0-3.66090506-1.83045253-3.66090506-3.66090504L475.39094954 450.67984046c0-1.83045253 1.83045253-3.66090506 3.66090504-3.66090505s3.66090506 1.83045253 3.66090506 3.66090505l4.57613129 115.31850899c-0.91522626 1.83045253-1.83045253 2.74567878-4.57613129 2.74567878z" fill="#961919" p-id="7908"></path><path d="M482.71275964 568.74402823h-0.91522626c-1.83045253-0.91522626-2.74567878-2.74567878-1.83045254-4.5761313l41.18518177-104.33579386c0.91522626-1.83045253 2.74567878-2.74567878 4.5761313-1.83045252 1.83045253 0.91522626 2.74567878 2.74567878 1.83045254 4.57613134L486.37366467 566.91357571c-0.91522626 0.91522626-1.83045253 1.83045253-3.66090503 1.83045252z" fill="#961919" p-id="7909"></path><path d="M482.71275964 568.74402823c-0.91522626 0-2.74567878-0.91522626-2.7456788-1.83045252L429.62963645 462.57778189c-0.91522626-1.83045253 0-3.66090506 1.83045252-4.57613134 1.83045253-0.91522626 3.66090506 0 4.57613129 1.83045252l50.33744441 104.33579386c0.91522626 1.83045253 0 3.66090506-1.83045251 4.5761313h-1.83045252z" fill="#961919" p-id="7910"></path><path d="M482.71275964 568.74402823c-0.91522626 0-1.83045253 0-2.7456788-0.91522625-0.91522626-1.83045253-0.91522626-3.66090506 0-4.5761313l87.86172114-78.70945852c1.83045253-0.91522626 3.66090506-0.91522626 4.57613131 0 0.91522626 1.83045253 0.91522626 3.66090506 0 4.57613131l-87.86172113 78.70945851c0 0.91522626-0.91522626 0.91522626-1.83045252 0.91522625z" fill="#961919" p-id="7911"></path><path d="M482.71275964 568.74402823c-0.91522626 0-1.83045253 0-2.7456788-0.91522625L393.02058598 490.03456973c-1.83045253-0.91522626-1.83045253-3.66090506 0-4.57613132 0.91522626-1.83045253 3.66090506-1.83045253 4.5761313 0l87.86172113 78.70945852c1.83045253 0.91522626 1.83045253 3.66090506 0 4.5761313h-2.74567877z" fill="#961919" p-id="7912"></path><path d="M484.54321216 571.48970703h-4.57613132l-103.42056757-33.8633717c-0.91522626 0-5.49135757-1.83045253-7.3218101-7.32181009-1.83045253-3.66090506-0.91522626-7.3218101 0-10.98271514 3.66090506-8.23703635 21.05020402-46.67653934 61.32015953-62.23538581 26.54156159-10.06748889 45.76131308-10.06748889 52.16789694-10.06748888h0.91522625c21.05020402 0 39.35472924 5.49135757 52.1678969 10.06748888 13.72839391 5.49135757 25.62633533 13.72839391 35.69382424 23.79588281 15.55884645 15.55884645 22.88065653 32.94814542 25.62633533 38.439503 1.83045253 3.66090506 1.83045253 7.3218101 0.91522626 10.98271514-1.83045253 4.5761313-7.3218101 6.40658382-7.32181012 7.32181009L484.54321216 571.48970703z m-3.66090506-7.3218101h1.83045254l103.42056756-33.86337169s2.74567878-0.91522626 3.66090506-3.66090507c0.91522626-1.83045253 0-3.66090506-0.91522628-5.49135756-1.83045253-4.5761313-9.15226261-21.05020402-23.79588279-35.6938242-10.06748889-10.06748889-21.05020402-17.38929897-32.94814544-22.88065652-11.8979414-4.5761313-29.28724036-10.06748889-49.42221811-9.15226265h-0.91522626c-6.40658382 0-24.71110907 0-49.42221815 9.15226265-37.52427671 14.64362017-53.99834945 51.25267068-56.74402821 58.57448072-0.91522626 2.74567878-0.91522626 4.5761313-0.91522625 5.49135756 0.91522626 1.83045253 3.66090506 3.66090506 3.660905 3.66090507l10.98271516 3.66090503 91.52262617 30.20246666z m106.16624636-30.20246666z m0 0z" fill="#961919" p-id="7913"></path><path d="M533.96543027 576.06583831h-8.23703636c6.40658382-10.98271516-6.40658382-15.55884645-14.64362017-17.38929897l2.74567879-0.91522626s29.28724036 2.74567878 20.13497774 18.30452523z" fill="#F4DD58" p-id="7914"></path><path d="M535.79588279 579.72674338H425.05350514l-0.91522626-2.74567879s-1.83045253-9.15226261 3.66090503-15.55884648c4.5761313-5.49135757 11.8979414-7.3218101 22.88065655-6.40658382h0.91522625l31.11769293 7.32181012 31.11769289-7.32181012h0.91522625s2.74567878 0 5.49135757 0.91522626c10.06748889 1.83045253 15.55884645 5.49135757 18.30452524 10.0674889 1.83045253 3.66090506 0.91522626 7.3218101-1.83045252 11.89794141l-0.91522628 1.83045252z m-105.25102009-7.32181009h100.67488879c0.91522626-1.83045253 0-3.66090506 0-3.66090506-0.91522626-2.74567878-5.49135757-5.49135757-12.81316767-6.40658382-1.83045253 0-3.66090506-0.91522626-4.57613129-0.9152263l-31.11769289 7.32181012-32.94814544-7.32181012c-8.23703635-0.91522626-13.72839391 0.91522626-17.38929897 4.57613134-0.91522626 1.83045253-1.83045253 4.5761313-1.83045253 6.40658384z" fill="#961919" p-id="7915"></path><path d="M474.47572329 578.8115171a8.23703635 7.3218101 90 1 0 14.64362018 0 8.23703635 7.3218101 90 1 0-14.64362018 0Z" fill="#F9F18F" p-id="7916"></path><path d="M481.79753338 589.79423226c-5.49135757 0-10.06748889-5.49135757-10.0674889-10.98271516 0-6.40658382 4.5761313-10.98271516 10.0674889-10.98271512s10.06748889 5.49135757 10.06748887 10.98271512c0.91522626 6.40658382-3.66090506 10.98271516-10.06748887 10.98271516z m0-15.55884646c-1.83045253 0-3.66090506 1.83045253-3.66090504 4.5761313s1.83045253 4.5761313 3.66090504 4.57613132 3.66090506-1.83045253 3.66090503-4.57613132-0.91522626-4.5761313-3.66090503-4.5761313z" fill="#961919" p-id="7917"></path></svg>